<svg xmlns="http://www.w3.org/2000/svg" viewBox="0 0 2708.98 714.96"><defs><style>.cls-1{isolation:isolate;}.cls-2{fill:#f3af42;}.cls-3{fill:#1d1d1b;}.cls-4{fill:none;}.cls-5{mix-blend-mode:multiply;}.cls-6{stroke:#fff;stroke-miterlimit:10;fill-rule:evenodd;}</style></defs><g class="cls-1"><g id="Layer_1" data-name="Layer 1"><path class="cls-2" d="M2644,126.3h0v0Z" transform="translate(-15.93 -14.95)"/><path class="cls-2" d="M2648.77,128.83a1.53,1.53,0,0,0-.91-1.17l-.13-.09a1.19,1.19,0,0,0-1-.49,9,9,0,0,0-2.78-.7v0l-.47.06h0l.46-.09a.8.8,0,0,0-.57-.7c.51-1.25.78-3.13-.35-4.1a1.25,1.25,0,0,0-1.74.67,7.53,7.53,0,0,0-.7,2.23,1.86,1.86,0,0,0-.25,1.42.6.6,0,0,0-.56-.11h0a4.24,4.24,0,0,1-.84.19c-.58-.37-2,.4-2.49.8a1,1,0,0,0,.47,1.86h0a7.93,7.93,0,0,0,1.53.15c-.17.31-.7.41-.85.72-.33.47.41,1,.8.64l.17,0a2.1,2.1,0,0,0-.06,1.95l.42-.21-.41.25a1,1,0,0,0,.13.2l.38-.29-.36.31,0,.06.39-.29h0l-.37.31c1.24,1.7,3.65-.24,4.38-1.55a.46.46,0,0,0,.23.06,3.29,3.29,0,0,0,2,.39,5.94,5.94,0,0,0,2.09-.74A1.69,1.69,0,0,0,2648.77,128.83Zm-2.16.57c-1.42.55-2.08.63-3.23-.49-.32-.24-.61-.69-1-.77a.37.37,0,0,0,0-.18,6.11,6.11,0,0,0,1-.71.54.54,0,0,0,.84.23.55.55,0,0,0,.69.13.41.41,0,0,0,.15.07C2645.57,128.13,2648.54,128.67,2646.61,129.4Zm-4.78,0a3,3,0,0,1-1.74,2l-.05-.1a3.68,3.68,0,0,1,1.8-2.33Zm1.3-2.63.1.07h0l-.1-.08Zm.37-.39Zm-3.28.32a.47.47,0,0,0,.34-.53l.15.1a1,1,0,0,0-.25.31,3.69,3.69,0,0,1-2.29.76h0l-.17,0h0l0,0A11.41,11.41,0,0,1,2640.22,126.67Zm-1.11,5.38Z" transform="translate(-15.93 -14.95)"/><path class="cls-3" d="M2580.48,131h2.17l9.66,21.67h-3.16l-2.87-6.38h-9.19l-2.69,6.38h-3.17Zm4.53,12.54-3.47-7.8-3.23,7.8Z" transform="translate(-15.93 -14.95)"/><path class="cls-3" d="M2593.37,134.4H2596v15.93h8.24v2.38h-10.86Z" transform="translate(-15.93 -14.95)"/><path class="cls-3" d="M2605.72,134.4h10.38v2.33h-7.76v5.59h7.5v2.34h-7.5v5.69h8v2.33h-10.63Z" transform="translate(-15.93 -14.95)"/><path class="cls-3" d="M2631.59,134.4h3.17l-7.33,8.83,7.84,9.48h-3.17l-6.24-7.59-6.29,7.59h-3.2l7.88-9.48-7.32-8.83h3.2l5.75,7Z" transform="translate(-15.93 -14.95)"/><path class="cls-3" d="M2648.08,134.17h1.07v10.27h2v2.23h-2v6h-2.55v-6h-7.75v-1.13Zm-1.48,10.27v-5.31l-4.24,5.31Z" transform="translate(-15.93 -14.95)"/><path class="cls-3" d="M2673.58,131.16h3.08v21.55h-3.08v-9.38h-12.11v9.38h-3.08V131.16h3.08v9.32h12.11Z" transform="translate(-15.93 -14.95)"/><path class="cls-2" d="M2689.09,134.14a9.86,9.86,0,0,1,7.07,2.69,8.9,8.9,0,0,1,2.82,6.73,8.78,8.78,0,0,1-2.85,6.71,10.11,10.11,0,0,1-7.18,2.65,9.55,9.55,0,0,1-6.9-2.65,8.84,8.84,0,0,1-2.75-6.65,9,9,0,0,1,2.77-6.79A9.69,9.69,0,0,1,2689.09,134.14Zm.11,2.49a7.12,7.12,0,0,0-5.17,2,6.68,6.68,0,0,0-2,5,6.58,6.58,0,0,0,2,4.92,7.52,7.52,0,0,0,10.19,0,6.67,6.67,0,0,0,2.05-5,6.52,6.52,0,0,0-2.05-4.89A6.92,6.92,0,0,0,2689.2,136.63Z" transform="translate(-15.93 -14.95)"/><path class="cls-3" d="M2701.26,152.71V134.38h5.8a6,6,0,0,1,4.18,1.41,4.87,4.87,0,0,1,1.56,3.8,5,5,0,0,1-.8,2.83,4.55,4.55,0,0,1-2.19,1.79,11.11,11.11,0,0,1-4,.56h-1.94v7.94Zm5.34-16h-2.71v5.73h2.87a3.62,3.62,0,0,0,2.46-.76,2.69,2.69,0,0,0,.87-2.15Q2710.09,136.71,2706.6,136.71Z" transform="translate(-15.93 -14.95)"/><path class="cls-3" d="M2714.28,134.4h10.38v2.33h-7.76v5.59h7.5v2.34h-7.5v5.69h8v2.33h-10.63Z" transform="translate(-15.93 -14.95)"/><path class="cls-4" d="M2642.64,121.32h0c.11,0-.08,0-.08,0h0a0,0,0,0,1,0,0h0l0,0Z" transform="translate(-15.93 -14.95)"/><path class="cls-4" d="M2642.61,121.37l0,0h0Z" transform="translate(-15.93 -14.95)"/><path class="cls-4" d="M2635.62,127.39h0Z" transform="translate(-15.93 -14.95)"/><rect class="cls-4" x="2626.59" y="106.34" width="0.03"/><path class="cls-4" d="M2638.41,125.79l.1,0h0l-.09,0,.09-.07h0l-.07.06Z" transform="translate(-15.93 -14.95)"/><polygon class="cls-4" points="2618.98 112.89 2618.98 112.89 2618.98 112.89 2618.98 112.89"/><polygon points="2621.1 112.82 2621.1 112.82 2621.1 112.82 2621.1 112.82"/><path d="M2635.9,126.54l-.17.1.09.12c.22-.12.43-.24.65-.34l0-.1.17-.1h0A7.36,7.36,0,0,0,2635.9,126.54Z" transform="translate(-15.93 -14.95)"/><path d="M2635.34,128a5.21,5.21,0,0,0,1.71.17l-.07.1a6.39,6.39,0,0,0,2.7-.43,6.17,6.17,0,0,0,3.86-4.41c.19-1,.23-2.41-.56-3.15-1.22-.52-1.62,1.63-1.88,2.45,0,.78-.61,1.43-.53,2.16.59,1,.89-1.64,1-2s.82-2,1.12-1.71c.68,1.52-.22,3.21-1.11,4.49l.13.12-.14.09c-.18.35-.72.69-1,1l.3-.57-.14.15c0,.16-.14.25-.28.34a4.05,4.05,0,0,1-1.4.79,7.59,7.59,0,0,1-2,.35c-.3,0-.57-.14-.86-.14v0l-.15,0v0c-.11,0-.21-.05-.3-.06a.37.37,0,0,1-.29,0l-.26,0a.48.48,0,0,1,.15-.43.33.33,0,0,1,.06-.1l-.11-.1-.1.12-.07,0a.82.82,0,0,1-.17.42.34.34,0,0,0,0,.19l0,0A.86.86,0,0,0,2635.34,128Z" transform="translate(-15.93 -14.95)"/><polygon points="2626.74 106.37 2626.74 106.37 2626.74 106.37 2626.74 106.37"/><polygon points="2626.59 106.34 2626.59 106.34 2626.59 106.34 2626.59 106.34"/><polygon points="2619.12 113.02 2619.12 113.02 2619.12 113.02 2619.12 113.02"/><g class="cls-5"><path class="cls-6" d="M2642.12,127.5c-.58.28-1.15.71-1.72.92a8,8,0,0,1-1.06.65c-.09,0-.1.16-.23.15l0-.05a1.56,1.56,0,0,1-.57.48v-.05c-.06,0,0,.05,0,.1l-.05,0-.09.09c-.16,0-.32.25-.48.22l-.05.07,0-.07c-.07.06-.08.15-.19.1v0l0,0s0,0-.1-.06a2.17,2.17,0,0,0,.33-.19h0c-.12,0-.23.11-.34.14l0,0c.08-.1.28-.14.36-.24l0,0a3,3,0,0,0-.74.43c-.07.06-.14,0-.11.14l-.08-.05c.25-.33.75-.39,1-.71h-.06l0,0c0-.07.12-.19.18-.11l-.08.09v0c.16,0,.27-.18.41-.24l0,0-.12,0h0c.1-.1.11-.25.22-.33s.08-.05.09-.08,0-.07.05-.11l.06.08,0,0c.2,0,.24-.15.34-.23s.1,0,.11-.08c.18-.17.94-.58.82-.81a.82.82,0,0,1,.37-.29v.07c.48-.62,1.46-.61,2-1.23a1.3,1.3,0,0,1,.52-.19c.22-.06.28-.31.42-.47.31-.27.92.13.77.52a1.09,1.09,0,0,0-.62.52A7.6,7.6,0,0,1,2642.12,127.5Zm-1.87.15c.05,0,.07,0,.06-.1h0v0l0,0h0c-.08.06-.18,0-.19.2C2640.16,127.72,2640.19,127.65,2640.25,127.65Zm-1.73,1.21,0,0h0Zm-.23.72v0l-.09.07v0Zm-.6-.07c-.06.07-.24.1-.19.21l.28-.16C2637.72,129.46,2637.7,129.5,2637.69,129.51Zm-.63.87c.08,0,.05-.1.15-.14l0,0-.06,0,0,0-.09.13Zm.07-.5v0c.07,0,.13,0,.12-.1Zm0,.05c-.07,0-.11,0-.14.11S2637.07,130,2637.09,129.93Zm.32.28s-.08,0,0,.1l.1-.05,0,0Zm.06-.21v0l-.16.1,0,0Zm0-.27a.13.13,0,0,0-.13.07C2637.36,129.82,2637.39,129.77,2637.42,129.73Zm.6.27.17-.09v0C2638.08,129.92,2638,130,2638,130Zm-.92.43c.1,0,.11,0,.11-.09Zm-.1-.07-.06,0C2637,130.44,2637,130.44,2637,130.36Zm1.12-1.1v0h0v.05Zm-1.12,1.22h0l0,0h0Zm.3-.17v0h0v0Zm-.11-.18v0h0v0Zm.29,0s0,0,0,0v0Z" transform="translate(-15.93 -14.95)"/></g><polygon class="cls-4" points="2622.76 118.8 2622.76 118.8 2622.76 118.8 2622.76 118.8"/><polygon class="cls-4" points="2623.63 119 2623.63 119 2623.63 119 2623.63 119"/><path class="cls-4" d="M2645.61,126.85a.25.25,0,0,0-.17,0v0l0,0,.12,0Z" transform="translate(-15.93 -14.95)"/><polygon class="cls-4" points="2628.55 116.47 2628.55 116.47 2628.55 116.47 2628.55 116.47"/><polygon points="2626.72 114.07 2626.72 114.07 2626.72 114.07 2626.72 114.07"/><rect x="2629.62" y="116.02"/><path d="M2648.51,127.81a3.07,3.07,0,0,0-.64-.29l0,.07a.58.58,0,0,1-.23,0h0a5.34,5.34,0,0,1,1,.47l.08-.13Z" transform="translate(-15.93 -14.95)"/><path d="M2644.51,131.31a3.88,3.88,0,0,0,3.06-.09,3.69,3.69,0,0,0,1-.46,3.83,3.83,0,0,0,1-.61l0,.08,0,0-.06-.06a.53.53,0,0,0,.1-.12h.05a1,1,0,0,0,0-1.31l-.09,0c-.19-.15-.31-.4-.53-.52l-.09.12.1.07v0c.18,0,.24.22.29.37h0c.4.71-.38,1.28-.93,1.64v-.12c-2.95,1.37-3.79.82-6-1.26l0,0,0,1-.13,0h.12c-1.78,4.58-6.14,3.55-2-.9.35-.37.84-.35,1.09-.81.59-.73-.62-.42-.88-.08-1.21,1.33-3.74,3.2-2.18,5.12l0,0a1.16,1.16,0,0,0,.2.18l0,0a1.29,1.29,0,0,0,.76.19h0a5.27,5.27,0,0,0,3.58-3,.9.9,0,0,1,0-.19h0c0-.1-.23-.77-.27-.88l.4.57c.05,0,.11,0,.18.14l-.05,0h0l.05,0c.14.07.7.5.84.59l-.73-.24.27.17c.26-.06.45.21.71.27Z" transform="translate(-15.93 -14.95)"/><path class="cls-2" d="M2358.09,117.42h0v0Z" transform="translate(-15.93 -14.95)"/><path class="cls-2" d="M2364.48,120.8a2,2,0,0,0-1.21-1.56l-.18-.12a1.57,1.57,0,0,0-1.3-.66,11.77,11.77,0,0,0-3.69-.92s0-.05,0-.08l-.63.08h0l.63-.12a1.08,1.08,0,0,0-.77-.92c.68-1.67,1-4.18-.46-5.47a1.68,1.68,0,0,0-2.33.88,10.43,10.43,0,0,0-.93,3,2.47,2.47,0,0,0-.33,1.9.78.78,0,0,0-.74-.15h0a5.67,5.67,0,0,1-1.14.25c-.76-.5-2.66.54-3.31,1.07a1.32,1.32,0,0,0,.63,2.47h0a9.32,9.32,0,0,0,2,.2c-.22.41-.92.55-1.13,1-.43.63.54,1.39,1.06.85a.85.85,0,0,0,.23,0,2.86,2.86,0,0,0-.08,2.61l.56-.29-.54.33a1.78,1.78,0,0,0,.17.27l.5-.38-.48.41.05.07.51-.37h0l-.48.4c1.65,2.27,4.86-.32,5.84-2.06a.64.64,0,0,0,.3.08,4.41,4.41,0,0,0,2.68.51,7.44,7.44,0,0,0,2.79-1A2.26,2.26,0,0,0,2364.48,120.8Zm-2.88.76c-1.89.74-2.77.84-4.31-.66-.43-.32-.81-.92-1.36-1a1,1,0,0,0,0-.24,7.38,7.38,0,0,0,1.27-1c.22.41.73.68,1.12.31a.75.75,0,0,0,.92.17.51.51,0,0,0,.21.1C2360.22,119.87,2364.18,120.59,2361.6,121.56Zm-6.38,0a4,4,0,0,1-2.31,2.63.53.53,0,0,1-.06-.14,4.89,4.89,0,0,1,2.39-3.11ZM2357,118l.14.1h0L2357,118Zm.5-.51Zm-4.38.41a.63.63,0,0,0,.46-.7,1,1,0,0,0,.2.14c-.11.11-.29.25-.33.41a5.08,5.08,0,0,1-3.07,1h0l-.23,0v0l0,0A14.9,14.9,0,0,1,2353.08,117.91Zm-1.48,7.18Z" transform="translate(-15.93 -14.95)"/><path class="cls-3" d="M2273.43,123.75h2.89l12.88,28.89H2285l-3.83-8.51H2268.9l-3.59,8.51h-4.22Zm6,16.72-4.63-10.41-4.3,10.41Z" transform="translate(-15.93 -14.95)"/><path class="cls-3" d="M2290.61,128.23h3.49v21.23h11v3.18h-14.48Z" transform="translate(-15.93 -14.95)"/><path class="cls-3" d="M2307.08,128.23h13.84v3.11h-10.35v7.44h10v3.13h-10v7.59h10.68v3.11h-14.17Z" transform="translate(-15.93 -14.95)"/><path class="cls-3" d="M2341.57,128.23h4.22L2336,140l10.45,12.64h-4.23l-8.31-10.12-8.39,10.12h-4.27l10.5-12.64L2322,128.23h4.26l7.67,9.32Z" transform="translate(-15.93 -14.95)"/><path class="cls-3" d="M2363.56,127.91H2365v13.7h2.73v3H2365v8h-3.4v-8h-10.33v-1.51Zm-2,13.7v-7.07l-5.65,7.07Z" transform="translate(-15.93 -14.95)"/><path class="cls-3" d="M2397.56,123.91h4.11v28.73h-4.11v-12.5h-16.15v12.5h-4.11V123.91h4.11v12.42h16.15Z" transform="translate(-15.93 -14.95)"/><path class="cls-2" d="M2418.24,127.88a13.09,13.09,0,0,1,9.42,3.58,11.88,11.88,0,0,1,3.77,9,11.71,11.71,0,0,1-3.8,8.94,13.49,13.49,0,0,1-9.58,3.54,12.72,12.72,0,0,1-9.19-3.54,11.8,11.8,0,0,1-3.68-8.87,12.1,12.1,0,0,1,3.7-9A12.91,12.91,0,0,1,2418.24,127.88Zm.14,3.32a9.44,9.44,0,0,0-6.88,2.62,8.93,8.93,0,0,0-2.7,6.69,8.75,8.75,0,0,0,2.7,6.57,10,10,0,0,0,13.6-.05,8.94,8.94,0,0,0,2.73-6.66,8.72,8.72,0,0,0-2.73-6.52A9.28,9.28,0,0,0,2418.38,131.2Z" transform="translate(-15.93 -14.95)"/><path class="cls-3" d="M2434.46,152.64V128.19h7.74a8,8,0,0,1,5.58,1.89,6.54,6.54,0,0,1,2.08,5.07,6.76,6.76,0,0,1-1.07,3.77,6.08,6.08,0,0,1-2.92,2.39,14.93,14.93,0,0,1-5.31.74H2438v10.59Zm7.13-21.34H2438v7.64h3.83a4.87,4.87,0,0,0,3.29-1,3.64,3.64,0,0,0,1.15-2.88C2446.24,132.56,2444.69,131.3,2441.59,131.3Z" transform="translate(-15.93 -14.95)"/><path class="cls-3" d="M2451.82,128.23h13.84v3.11h-10.34v7.44h10v3.13h-10v7.59H2466v3.11h-14.18Z" transform="translate(-15.93 -14.95)"/><path class="cls-4" d="M2356.3,110.79h0c.15,0-.1,0-.1,0h0s0,0,0,0h0l0,0Z" transform="translate(-15.93 -14.95)"/><path class="cls-4" d="M2356.27,110.85l.06,0h0Z" transform="translate(-15.93 -14.95)"/><path class="cls-4" d="M2347,118.88s0,0,.06,0Z" transform="translate(-15.93 -14.95)"/><rect class="cls-4" x="2340.22" y="95.8" width="0.04"/><path class="cls-4" d="M2350.67,116.74a.35.35,0,0,0,.14,0h0l-.13,0,.12-.09h0a.39.39,0,0,1-.1.08Z" transform="translate(-15.93 -14.95)"/><polygon class="cls-4" points="2330.07 104.52 2330.07 104.52 2330.07 104.52 2330.07 104.52"/><polygon points="2332.9 104.44 2332.9 104.44 2332.9 104.44 2332.9 104.44"/><path d="M2347.32,117.75l-.22.12.11.17.87-.46,0-.13.23-.13v0C2347.94,117.43,2347.63,117.59,2347.32,117.75Z" transform="translate(-15.93 -14.95)"/><path d="M2346.58,119.67a7.31,7.31,0,0,0,2.28.23l-.1.13a8.71,8.71,0,0,0,3.6-.58c2.47-1.1,4.7-3.1,5.15-5.88.25-1.33.3-3.21-.75-4.2-1.63-.7-2.16,2.18-2.51,3.27,0,1-.81,1.9-.7,2.89.78,1.37,1.18-2.2,1.36-2.69s1.08-2.7,1.49-2.28c.91,2-.29,4.28-1.47,6l.16.16-.19.12c-.23.46-1,.92-1.32,1.31l.4-.76-.2.19c0,.22-.18.33-.36.46a5.59,5.59,0,0,1-1.87,1,10.29,10.29,0,0,1-2.73.47c-.39,0-.75-.19-1.14-.19v0l-.19,0v0c-.14,0-.27-.06-.39-.07a.52.52,0,0,1-.39-.06l-.35.06a.68.68,0,0,1,.2-.58.41.41,0,0,1,.08-.13l-.15-.13a1.83,1.83,0,0,0-.13.16l-.09,0a1.12,1.12,0,0,1-.23.55.48.48,0,0,0,.07.26l0,0A1.3,1.3,0,0,0,2346.58,119.67Z" transform="translate(-15.93 -14.95)"/><polygon points="2340.41 95.83 2340.41 95.83 2340.41 95.83 2340.41 95.83"/><polygon points="2340.22 95.79 2340.22 95.79 2340.22 95.79 2340.22 95.79"/><polygon points="2330.25 104.7 2330.25 104.7 2330.25 104.7 2330.25 104.7"/><g class="cls-5"><path class="cls-6" d="M2355.62,119a24.72,24.72,0,0,1-2.31,1.23,9.83,9.83,0,0,1-1.4.87c-.12,0-.14.21-.31.19l0-.06a2.25,2.25,0,0,1-.76.65l0-.08c-.08,0-.05.07-.05.14l-.06,0-.12.12c-.21,0-.43.33-.64.29l-.07.1,0-.1c-.09.08-.11.21-.26.14v0l0,0s0,0-.13-.08a2.76,2.76,0,0,0,.44-.25v0c-.16,0-.3.15-.46.18l0,0c.1-.13.37-.19.47-.32l0,0a4.28,4.28,0,0,0-1,.58c-.08.07-.19,0-.14.19l-.11-.07c.33-.44,1-.53,1.36-1h-.08l0,0c0-.09.15-.25.23-.14l-.11.12v0c.21,0,.35-.23.54-.32l0,0-.17,0,0,0c.14-.13.15-.32.29-.44s.1-.06.12-.1,0-.1.07-.15l.07.11,0-.05c.26,0,.31-.19.44-.31s.14,0,.16-.1c.23-.23,1.25-.78,1.09-1.08a1.07,1.07,0,0,1,.49-.38l0,.09c.64-.82,1.94-.81,2.63-1.64a1.6,1.6,0,0,1,.68-.25c.3-.09.39-.42.57-.63.4-.35,1.22.17,1,.69a1.54,1.54,0,0,0-.82.69A9.36,9.36,0,0,1,2355.62,119Zm-2.51.2c.08,0,.11,0,.09-.13h.05l0,0,0,0h0c-.11.08-.24.07-.25.27C2353,119.32,2353,119.23,2353.11,119.22Zm-2.29,1.61,0,0,0,0Zm-.31,1,0,0-.12.08,0,0Zm-.81-.1c-.08.09-.32.13-.25.27l.38-.2C2349.75,121.64,2349.72,121.7,2349.7,121.71Zm-.83,1.16c.1-.07.07-.13.19-.19l0,0-.08,0,0-.06-.11.18A.23.23,0,0,1,2348.87,122.87Zm.09-.66v0c.09,0,.17,0,.17-.14Zm-.05.05a.22.22,0,0,0-.18.15C2348.8,122.37,2348.88,122.35,2348.91,122.26Zm.43.38s-.11,0-.05.13l.13-.06v0Zm.07-.28v0l-.21.13,0,0Zm-.07-.36a.19.19,0,0,0-.17.09C2349.27,122.12,2349.3,122.06,2349.34,122Zm.81.36.22-.12v0C2350.23,122.26,2350.14,122.31,2350.15,122.36Zm-1.23.57c.13,0,.15,0,.15-.12Zm-.13-.09-.08,0C2348.81,123,2348.82,122.94,2348.79,122.84Zm1.49-1.46v-.07l0,0v.07Zm-1.49,1.62v0l.06,0v0Zm.39-.23,0,0h.05l0,0Zm-.14-.23s0,0,0,0h0v0Zm.38,0s0,0,0,0l0,0Z" transform="translate(-15.93 -14.95)"/></g><polygon class="cls-4" points="2335.11 112.4 2335.11 112.4 2335.11 112.4 2335.11 112.4"/><polygon class="cls-4" points="2336.27 112.68 2336.27 112.68 2336.27 112.68 2336.27 112.68"/><path class="cls-4" d="M2360.27,118.16a.31.31,0,0,0-.23,0v0l.07,0a.44.44,0,0,1,.15,0Z" transform="translate(-15.93 -14.95)"/><polygon class="cls-4" points="2342.82 109.31 2342.82 109.31 2342.82 109.31 2342.82 109.31"/><polygon points="2340.39 106.1 2340.39 106.1 2340.39 106.1 2340.39 106.1"/><rect x="2344.25" y="108.7"/><path d="M2364.13,119.44a3.81,3.81,0,0,0-.85-.38l0,.09a1,1,0,0,1-.3,0h0a7,7,0,0,1,1.35.63l.1-.17Z" transform="translate(-15.93 -14.95)"/><path d="M2358.8,124.11a5.25,5.25,0,0,0,4.08-.12,5,5,0,0,0,1.37-.62,5.27,5.27,0,0,0,1.35-.81l.06.11.05,0-.08-.07.13-.16h.07a1.37,1.37,0,0,0,.05-1.75l-.11.06c-.26-.2-.43-.53-.71-.7l-.12.16.12.09,0,.06c.24,0,.33.3.39.5h0c.53,1-.5,1.71-1.23,2.2v-.17c-3.94,1.83-5.05,1.1-8-1.68l0,0-.06,1.31-.16,0,.15,0c-2.37,6.1-8.19,4.74-2.69-1.19.46-.5,1.12-.48,1.46-1.09.78-1-.83-.55-1.18-.1-1.62,1.76-5,4.26-2.9,6.82l0,0a1,1,0,0,0,.26.24l0,0a1.55,1.55,0,0,0,1,.25h0a7,7,0,0,0,4.77-3.94.8.8,0,0,1,0-.26h0c0-.13-.31-1-.36-1.18l.53.76c.06,0,.15,0,.24.19l-.06,0h0l.06,0c.18.1.93.66,1.12.79l-1-.32.35.22c.34-.08.6.29.94.36Z" transform="translate(-15.93 -14.95)"/><path class="cls-2" d="M1999.49,105.59h0v0Z" transform="translate(-15.93 -14.95)"/><path class="cls-2" d="M2008,110.1a2.71,2.71,0,0,0-1.62-2.08,1.46,1.46,0,0,0-.24-.17,2.1,2.1,0,0,0-1.73-.87,15.82,15.82,0,0,0-4.93-1.24v-.1l-.84.11h0l.83-.16a1.43,1.43,0,0,0-1-1.23c.91-2.22,1.39-5.57-.62-7.29-1.15-.77-2.55.06-3.1,1.17a13.87,13.87,0,0,0-1.25,4,3.22,3.22,0,0,0-.43,2.52,1.05,1.05,0,0,0-1-.19h0a7.43,7.43,0,0,1-1.51.33c-1-.66-3.56.72-4.42,1.43a1.76,1.76,0,0,0,.83,3.3h0a12.4,12.4,0,0,0,2.71.27c-.3.55-1.24.73-1.51,1.28-.58.84.72,1.85,1.41,1.13a.78.78,0,0,0,.31,0,3.85,3.85,0,0,0-.11,3.48l.75-.39-.72.45a3.13,3.13,0,0,0,.22.36l.67-.51-.64.55.07.09.68-.5h0l-.64.55c2.19,3,6.48-.43,7.78-2.75a.83.83,0,0,0,.4.09,5.84,5.84,0,0,0,3.58.69,9.92,9.92,0,0,0,3.71-1.31A3,3,0,0,0,2008,110.1Zm-3.84,1c-2.52,1-3.7,1.12-5.75-.87-.57-.43-1.09-1.22-1.82-1.36a1.22,1.22,0,0,0,0-.33,9.4,9.4,0,0,0,1.69-1.26,1,1,0,0,0,1.49.41,1,1,0,0,0,1.23.23.92.92,0,0,0,.28.14C2002.33,108.86,2007.61,109.82,2004.18,111.1Zm-8.51,0a5.25,5.25,0,0,1-3.09,3.51,1.54,1.54,0,0,1-.08-.19,6.51,6.51,0,0,1,3.2-4.14Zm2.31-4.67.19.12v0l-.18-.14Zm.67-.69Zm-5.83.56a.85.85,0,0,0,.6-1,1,1,0,0,0,.27.19,1.61,1.61,0,0,0-.44.54c-1.17,1.07-2.58,1.2-4.09,1.36h0l-.3,0,0,0a.18.18,0,0,0,0-.07A19.76,19.76,0,0,1,1992.82,106.25Zm-2,9.57Z" transform="translate(-15.93 -14.95)"/><path class="cls-3" d="M1886.61,114h3.86l17.17,38.53H1902l-5.11-11.35h-16.34l-4.79,11.35h-5.63Zm8.06,22.3-6.18-13.88-5.73,13.88Z" transform="translate(-15.93 -14.95)"/><path class="cls-3" d="M1909.52,120h4.66v28.31h14.65v4.24h-19.31Z" transform="translate(-15.93 -14.95)"/><path class="cls-3" d="M1931.48,120h18.45v4.15h-13.79v9.92h13.33v4.17h-13.33v10.11h14.23v4.15h-18.89Z" transform="translate(-15.93 -14.95)"/><path class="cls-3" d="M1977.47,120h5.63l-13,15.7L1984,152.55h-5.63l-11.09-13.49-11.19,13.49h-5.69l14-16.85-13-15.7h5.69l10.22,12.43Z" transform="translate(-15.93 -14.95)"/><path class="cls-3" d="M2006.79,119.58h1.91v18.27h3.63v4h-3.63v10.74h-4.54V141.81h-13.77v-2Zm-2.63,18.27v-9.44l-7.54,9.44Z" transform="translate(-15.93 -14.95)"/><path class="cls-3" d="M2052.12,114.24h5.48v38.31h-5.48V135.88h-21.53v16.67h-5.48V114.24h5.48V130.8h21.53Z" transform="translate(-15.93 -14.95)"/><path class="cls-2" d="M2079.7,119.53a17.47,17.47,0,0,1,12.56,4.78,15.82,15.82,0,0,1,5,12,15.58,15.58,0,0,1-5.07,11.92,18,18,0,0,1-12.77,4.72,17,17,0,0,1-12.26-4.72,15.74,15.74,0,0,1-4.9-11.82,16.09,16.09,0,0,1,4.94-12.07A17.19,17.19,0,0,1,2079.7,119.53Zm.19,4.43a12.64,12.64,0,0,0-9.19,3.49,11.9,11.9,0,0,0-3.59,8.93,11.7,11.7,0,0,0,3.6,8.76,13.42,13.42,0,0,0,18.13-.07,12,12,0,0,0,3.64-8.88,11.66,11.66,0,0,0-3.64-8.7A12.4,12.4,0,0,0,2079.89,124Z" transform="translate(-15.93 -14.95)"/><path class="cls-3" d="M2101.32,152.55V120h10.32a10.64,10.64,0,0,1,7.44,2.52,8.67,8.67,0,0,1,2.77,6.75,9,9,0,0,1-1.42,5,8.17,8.17,0,0,1-3.89,3.18,19.84,19.84,0,0,1-7.09,1H2106v14.12Zm9.51-28.45H2106v10.18h5.1a6.5,6.5,0,0,0,4.38-1.34,4.82,4.82,0,0,0,1.54-3.83Q2117,124.1,2110.83,124.1Z" transform="translate(-15.93 -14.95)"/><path class="cls-3" d="M2124.47,120h18.46v4.15h-13.8v9.92h13.33v4.17h-13.33v10.11h14.24v4.15h-18.9Z" transform="translate(-15.93 -14.95)"/><path class="cls-4" d="M1997.11,96.75h0c.21,0-.13,0-.13,0h0s0,0,0,0h0l0,0A.05.05,0,0,0,1997.11,96.75Z" transform="translate(-15.93 -14.95)"/><path class="cls-4" d="M1997.07,96.82l.08,0h-.06Z" transform="translate(-15.93 -14.95)"/><path class="cls-4" d="M1984.64,107.54h0Z" transform="translate(-15.93 -14.95)"/><polygon class="cls-4" points="1980.98 81.73 1980.98 81.73 1981.02 81.76 1981.02 81.75 1980.98 81.73"/><path class="cls-4" d="M1989.6,104.69l.18,0v0l-.16,0,.15-.13h0a.45.45,0,0,1-.13.11Z" transform="translate(-15.93 -14.95)"/><polygon class="cls-4" points="1967.44 93.37 1967.44 93.37 1967.44 93.37 1967.44 93.37"/><polygon points="1971.22 93.26 1971.22 93.26 1971.22 93.26 1971.22 93.26"/><path d="M1985.14,106a2.11,2.11,0,0,0-.3.16l.15.22c.39-.2.76-.42,1.16-.61l-.07-.18.3-.17v0A12.82,12.82,0,0,0,1985.14,106Z" transform="translate(-15.93 -14.95)"/><path d="M1984.15,108.58a9.16,9.16,0,0,0,3,.31l-.14.17a11.57,11.57,0,0,0,4.8-.77c3.3-1.46,6.27-4.13,6.87-7.84.33-1.76.4-4.27-1-5.59-2.18-.93-2.89,2.9-3.35,4.35,0,1.39-1.08,2.54-.94,3.85,1,1.83,1.58-2.93,1.82-3.58s1.44-3.6,2-3c1.22,2.71-.39,5.7-2,8l.21.21-.25.16c-.3.62-1.27,1.22-1.76,1.74l.53-1-.26.25c0,.3-.25.45-.49.62a7.28,7.28,0,0,1-2.48,1.4,13.49,13.49,0,0,1-3.64.62c-.53,0-1-.24-1.53-.25l0,0-.26,0V108c-.18,0-.36-.08-.52-.1a.63.63,0,0,1-.52-.08l-.46.08a.91.91,0,0,1,.26-.77.49.49,0,0,1,.1-.16l-.2-.18a1.73,1.73,0,0,0-.17.21l-.12,0a1.46,1.46,0,0,1-.3.74.68.68,0,0,0,.08.34l0,.06A1.89,1.89,0,0,0,1984.15,108.58Z" transform="translate(-15.93 -14.95)"/><polygon points="1981.23 81.78 1981.23 81.78 1981.23 81.78 1981.23 81.78"/><polygon points="1980.98 81.73 1980.98 81.73 1980.98 81.73 1980.98 81.73"/><polygon points="1967.68 93.61 1967.68 93.61 1967.68 93.61 1967.68 93.61"/><g class="cls-5"><path class="cls-6" d="M1996.2,107.72c-1,.5-2.06,1.28-3.07,1.64a12,12,0,0,1-1.88,1.15c-.16.06-.18.29-.4.27l0-.08a3.22,3.22,0,0,1-1,.86l0-.11c-.1,0-.06.1-.06.19l-.08-.06-.16.17c-.28,0-.57.44-.85.39l-.09.13,0-.14c-.12.11-.15.28-.35.19v0l0,0s0,0-.18-.12a3.37,3.37,0,0,0,.59-.32l0,0c-.21,0-.4.2-.6.25l0,0c.13-.18.49-.26.63-.43l0,0a6.17,6.17,0,0,0-1.32.77c-.11.11-.25,0-.19.26l-.15-.1c.45-.58,1.33-.7,1.81-1.27l-.1,0,0,0c0-.13.2-.34.31-.2l-.14.17v0c.28-.06.47-.31.71-.43l0-.06-.22.07,0,0c.18-.17.19-.43.38-.58s.14-.08.16-.14.06-.13.09-.2l.1.15.07-.07c.34.06.41-.26.59-.4s.18,0,.2-.14c.31-.31,1.67-1,1.46-1.44a1.51,1.51,0,0,1,.65-.52l0,.13c.86-1.1,2.59-1.08,3.51-2.19a2.21,2.21,0,0,1,.92-.33c.39-.12.51-.55.75-.83.54-.48,1.63.22,1.37.91a2,2,0,0,0-1.1.92A12.91,12.91,0,0,1,1996.2,107.72Zm-3.34.27c.1,0,.14,0,.12-.17h.06l0,0,0,0h0c-.15.1-.33.09-.34.35C1992.71,108.12,1992.77,108,1992.86,108Zm-3.06,2.15,0,0,0,0Zm-.42,1.29,0,0-.16.11,0,0Zm-1.07-.12c-.11.12-.43.17-.34.36l.51-.27C1988.37,111.21,1988.34,111.29,1988.31,111.31Zm-1.11,1.54c.14-.08.09-.17.26-.25l0,0-.11.06,0-.08c0,.08-.09.16-.15.24Zm.11-.88,0,0c.13,0,.23,0,.22-.19Zm0,.07a.29.29,0,0,0-.25.2C1987.1,112.18,1987.21,112.16,1987.26,112Zm.57.51c-.06,0-.15,0-.07.17l.18-.08,0,0Zm.1-.38,0,0-.27.17,0,0Zm-.1-.48a.22.22,0,0,0-.22.13C1987.73,111.86,1987.78,111.77,1987.83,111.69Zm1.07.49.3-.17,0,0C1989,112,1988.9,112.11,1988.9,112.18Zm-1.63.76c.17,0,.19,0,.19-.16Zm-.18-.13-.1,0C1987.12,113,1987.14,113,1987.09,112.81Zm2-2v-.08l0,0v.08Zm-2,2.17v0l.08,0,0,0Zm.52-.31,0,0h.06l0,0Zm-.2-.31s0,0,0,.06l0,0,0,0Zm.51,0s0,0,0,0l0,0Z" transform="translate(-15.93 -14.95)"/></g><polygon class="cls-4" points="1974.16 103.88 1974.16 103.88 1974.16 103.88 1974.16 103.88"/><polygon class="cls-4" points="1975.71 104.25 1975.71 104.25 1975.71 104.25 1975.71 104.25"/><path class="cls-4" d="M2002.4,106.58a.35.35,0,0,0-.3,0v0l.1,0a.37.37,0,0,1,.2,0Z" transform="translate(-15.93 -14.95)"/><polygon class="cls-4" points="1984.45 99.75 1984.45 99.75 1984.45 99.75 1984.45 99.75"/><polygon points="1981.21 95.47 1981.21 95.47 1981.21 95.47 1981.21 95.47"/><rect x="1986.36" y="98.95"/><path d="M2007.55,108.28a5.69,5.69,0,0,0-1.13-.51l-.06.13a1.76,1.76,0,0,1-.4-.06h0a10.44,10.44,0,0,1,1.81.84l.14-.23Z" transform="translate(-15.93 -14.95)"/><path d="M2000.44,114.5a7,7,0,0,0,5.44-.16,6.57,6.57,0,0,0,1.83-.82,6.81,6.81,0,0,0,1.79-1.09l.09.16.06-.07-.1-.09.17-.22h.09a1.82,1.82,0,0,0,.08-2.32l-.16.07c-.34-.26-.56-.7-.94-.93l-.17.22.17.11,0,.09c.32,0,.44.39.52.65h0c.71,1.26-.67,2.28-1.65,2.92l0-.21c-5.25,2.43-6.73,1.46-10.69-2.24l0,0-.08,1.76-.22,0,.21,0c-3.17,8.14-10.92,6.32-3.59-1.59.62-.66,1.5-.63,1.94-1.45,1-1.29-1.1-.74-1.57-.13-2.16,2.35-6.65,5.68-3.87,9.09l0,0a1.72,1.72,0,0,0,.34.32l0,0a2.13,2.13,0,0,0,1.34.33h.06c2.82-.48,5.12-2.78,6.37-5.26a.84.84,0,0,1-.07-.35h0c0-.18-.42-1.37-.48-1.57l.71,1c.08,0,.2,0,.31.24l-.07.05h0l.08,0c.24.13,1.24.88,1.49,1.06l-1.28-.44c.14.1.32.21.47.3.46-.11.8.38,1.26.48Z" transform="translate(-15.93 -14.95)"/><path class="cls-2" d="M1563.73,89.81h0a.09.09,0,0,0,0,0A.09.09,0,0,1,1563.73,89.81Z" transform="translate(-15.93 -14.95)"/><path class="cls-2" d="M1575.1,95.82a3.6,3.6,0,0,0-2.15-2.77l-.32-.22a2.79,2.79,0,0,0-2.31-1.17,21.3,21.3,0,0,0-6.57-1.65.49.49,0,0,0,0-.12l-1.12.13h0l1.11-.21a1.93,1.93,0,0,0-1.35-1.64c1.2-3,1.84-7.43-.84-9.72-1.53-1-3.39.08-4.12,1.57a17.9,17.9,0,0,0-1.67,5.3c-.43,1-1.06,2.15-.58,3.36a1.41,1.41,0,0,0-1.32-.25h0a10.1,10.1,0,0,1-2,.43c-1.35-.88-4.73,1-5.89,1.91-2,1.49-1.42,4.07,1.12,4.4h0a17.08,17.08,0,0,0,3.62.35c-.4.74-1.65,1-2,1.71-.78,1.12,1,2.47,1.88,1.51a1.1,1.1,0,0,0,.41,0,5.13,5.13,0,0,0-.15,4.64l1-.52-.95.6a3.22,3.22,0,0,0,.29.48l.9-.68-.86.73.09.12.91-.66h0l-.86.72c2.93,4,8.64-.56,10.38-3.66a1.16,1.16,0,0,0,.54.13,7.86,7.86,0,0,0,4.76.92,13.39,13.39,0,0,0,5-1.76A4,4,0,0,0,1575.1,95.82ZM1570,97.16c-3.36,1.32-4.93,1.5-7.66-1.16-.77-.57-1.45-1.63-2.43-1.82a1.25,1.25,0,0,0,0-.43,12.87,12.87,0,0,0,2.26-1.68,1.27,1.27,0,0,0,2,.54,1.31,1.31,0,0,0,1.64.31,1.16,1.16,0,0,0,.37.18C1567.52,94.17,1574.56,95.45,1570,97.16Zm-11.34-.06a7,7,0,0,1-4.12,4.67,1.3,1.3,0,0,1-.1-.25,8.6,8.6,0,0,1,4.26-5.52Zm3.08-6.24.25.17v0l-.24-.19Zm.9-.91Zm-7.79.74a1.14,1.14,0,0,0,.81-1.26,1.45,1.45,0,0,0,.36.25,2.13,2.13,0,0,0-.59.72c-1.56,1.42-3.44,1.6-5.45,1.82h-.06a3.12,3.12,0,0,1-.4,0l0,0,.08-.09C1551.23,91.21,1553,91.16,1554.83,90.69Zm-2.63,12.76Z" transform="translate(-15.93 -14.95)"/><path class="cls-3" d="M1413.23,101.06h5.14l22.9,51.36h-7.49l-6.8-15.13h-21.79l-6.39,15.13h-7.51ZM1424,130.78l-8.24-18.5-7.64,18.5Z" transform="translate(-15.93 -14.95)"/><path class="cls-3" d="M1443.77,109H1450v37.75h19.54v5.65h-25.75Z" transform="translate(-15.93 -14.95)"/><path class="cls-3" d="M1473.05,109h24.61v5.53h-18.4v13.24H1497v5.56h-17.77v13.48h19v5.53h-25.2Z" transform="translate(-15.93 -14.95)"/><path class="cls-3" d="M1534.37,109h7.51L1524.52,130l18.57,22.46h-7.5l-14.79-18-14.92,18h-7.59L1517,130,1499.63,109h7.58l13.62,16.58Z" transform="translate(-15.93 -14.95)"/><path class="cls-3" d="M1573.46,108.46H1576v24.36h4.85v5.28H1576v14.32H1570V138.1h-18.36v-2.67ZM1570,132.82V120.24l-10,12.58Z" transform="translate(-15.93 -14.95)"/><path class="cls-3" d="M1633.9,101.35h7.31v51.07h-7.31V130.2h-28.7v22.22h-7.31V101.35h7.31v22.08h28.7Z" transform="translate(-15.93 -14.95)"/><path class="cls-2" d="M1670.68,108.4a23.37,23.37,0,0,1,16.75,6.37,21.14,21.14,0,0,1,6.69,16,20.76,20.76,0,0,1-6.76,15.89q-6.75,6.28-17,6.29a22.67,22.67,0,0,1-16.35-6.29,21,21,0,0,1-6.53-15.77,21.44,21.44,0,0,1,6.58-16.09Q1660.63,108.41,1670.68,108.4Zm.25,5.91a16.84,16.84,0,0,0-12.25,4.66,15.84,15.84,0,0,0-4.79,11.89,15.57,15.57,0,0,0,4.81,11.68,17.86,17.86,0,0,0,24.16-.09,15.87,15.87,0,0,0,4.86-11.83,15.53,15.53,0,0,0-4.86-11.61A16.48,16.48,0,0,0,1670.93,114.31Z" transform="translate(-15.93 -14.95)"/><path class="cls-3" d="M1699.51,152.42V109h13.76q6.21,0,9.91,3.36a11.54,11.54,0,0,1,3.7,9A12,12,0,0,1,1725,128a10.86,10.86,0,0,1-5.18,4.24,26.46,26.46,0,0,1-9.45,1.32h-4.6v18.82Zm12.67-37.93h-6.43v13.58h6.81a8.64,8.64,0,0,0,5.84-1.79,6.43,6.43,0,0,0,2-5.11Q1720.45,114.5,1712.18,114.49Z" transform="translate(-15.93 -14.95)"/><path class="cls-3" d="M1730.38,109H1755v5.53h-18.39v13.24h17.77v5.56h-17.77v13.48h19v5.53h-25.19Z" transform="translate(-15.93 -14.95)"/><path class="cls-4" d="M1560.56,78h0c.27,0-.18,0-.18-.05h0l0,0h.06l.06,0Z" transform="translate(-15.93 -14.95)"/><path class="cls-4" d="M1560.5,78.13l.12-.06h-.09Z" transform="translate(-15.93 -14.95)"/><path class="cls-4" d="M1543.94,92.41h0Z" transform="translate(-15.93 -14.95)"/><polygon class="cls-4" points="1544.36 62.98 1544.36 62.99 1544.42 63.02 1544.42 63 1544.36 62.98"/><path class="cls-4" d="M1550.55,88.61l.24-.06v0l-.22,0,.2-.17h0a.86.86,0,0,1-.18.14Z" transform="translate(-15.93 -14.95)"/><polygon class="cls-4" points="1526.31 78.51 1526.31 78.51 1526.31 78.51 1526.31 78.51"/><polygon points="1531.34 78.36 1531.34 78.36 1531.34 78.36 1531.34 78.36"/><path d="M1544.6,90.4a3.78,3.78,0,0,0-.4.22l.19.29c.53-.27,1-.56,1.55-.82l-.08-.23.4-.23v0A18.05,18.05,0,0,0,1544.6,90.4Z" transform="translate(-15.93 -14.95)"/><path d="M1543.27,93.8a12.37,12.37,0,0,0,4.06.41l-.18.23a15.33,15.33,0,0,0,6.39-1c4.41-2,8.37-5.52,9.17-10.46.43-2.35.53-5.69-1.33-7.46-2.9-1.24-3.85,3.88-4.47,5.81,0,1.85-1.43,3.38-1.25,5.13,1.39,2.44,2.11-3.91,2.43-4.77s1.92-4.8,2.64-4.06c1.62,3.62-.52,7.61-2.62,10.65l.29.28-.33.22c-.41.82-1.7,1.63-2.35,2.32l.71-1.35-.35.34c0,.39-.33.6-.65.82a9.92,9.92,0,0,1-3.31,1.87,18.55,18.55,0,0,1-4.86.83c-.7,0-1.34-.32-2-.33l0-.06-.34,0,0-.08c-.24,0-.48-.12-.7-.14a.81.81,0,0,1-.68-.11l-.62.11a1.21,1.21,0,0,1,.35-1,.6.6,0,0,1,.14-.22l-.27-.24a3.25,3.25,0,0,0-.23.29l-.16.07a1.88,1.88,0,0,1-.41,1,.89.89,0,0,0,.12.45l.06.08A2.29,2.29,0,0,0,1543.27,93.8Z" transform="translate(-15.93 -14.95)"/><polygon points="1544.69 63.06 1544.69 63.06 1544.69 63.06 1544.69 63.06"/><polygon points="1544.36 62.98 1544.36 62.99 1544.36 62.98 1544.36 62.98"/><polygon points="1526.63 78.83 1526.63 78.83 1526.63 78.83 1526.63 78.83"/><g class="cls-5"><path class="cls-6" d="M1559.34,92.65c-1.37.67-2.74,1.7-4.09,2.19a17.37,17.37,0,0,1-2.5,1.54c-.22.07-.25.37-.54.35l0-.11a4,4,0,0,1-1.35,1.15l0-.14c-.13,0-.08.13-.07.25l-.12-.08-.21.23c-.38,0-.76.58-1.13.52l-.13.17-.06-.18c-.16.14-.19.37-.46.24v.06l.07,0c-.05.06-.06.06-.24-.15a5.4,5.4,0,0,0,.78-.44l0,0c-.28,0-.54.28-.81.33l0,0c.18-.24.65-.35.84-.58l0,0a7.53,7.53,0,0,0-1.76,1c-.16.13-.34,0-.26.33l-.2-.12c.6-.78,1.78-.94,2.42-1.7l-.14,0,0,0c0-.16.26-.45.41-.26l-.2.22,0,0c.37-.07.62-.41,1-.57l-.06-.08-.3.09,0,0c.24-.23.26-.58.51-.78.06-.07.18-.1.21-.19s.08-.17.13-.26l.13.2.09-.09c.46.07.55-.34.79-.54.11,0,.24,0,.26-.18.42-.41,2.23-1.39,2-1.92a1.88,1.88,0,0,1,.86-.69l0,.16c1.14-1.46,3.45-1.43,4.67-2.91a3,3,0,0,1,1.23-.45c.52-.15.68-.73,1-1.11.71-.63,2.16.3,1.81,1.23a2.64,2.64,0,0,0-1.46,1.22A16.55,16.55,0,0,1,1559.34,92.65Zm-4.45.36c.13,0,.19-.05.16-.22h.08l0-.06,0,.06h0c-.19.13-.43.12-.46.46C1554.7,93.18,1554.77,93,1554.89,93Zm-4.08,2.87,0,0,0,0Zm-.55,1.73,0,0-.21.15,0,.05Zm-1.43-.17c-.15.16-.57.22-.45.48l.67-.36C1548.91,97.3,1548.87,97.41,1548.83,97.44Zm-1.48,2c.18-.11.12-.23.34-.34l0-.05-.15.09,0-.11-.19.33S1547.34,99.5,1547.35,99.49Zm.15-1.17,0,0c.17.06.31,0,.3-.25Zm-.08.09a.39.39,0,0,0-.33.27C1547.22,98.61,1547.36,98.57,1547.42,98.41Zm.76.68c-.07,0-.19,0-.08.23l.23-.11,0-.07S1548.21,99.09,1548.18,99.09Zm.14-.5,0,0-.36.23,0,0Zm-.13-.64a.3.3,0,0,0-.3.17C1548.06,98.17,1548.12,98.05,1548.19,98Zm1.42.65.41-.23,0,0C1549.76,98.41,1549.61,98.5,1549.61,98.6Zm-2.17,1c.23,0,.26,0,.26-.21Zm-.24-.17-.13.06C1547.24,99.64,1547.27,99.62,1547.2,99.44Zm2.66-2.6v-.11l0,0v.12Zm-2.65,2.9v0l.11-.06,0,0Zm.7-.43,0,.06h.08l0-.06Zm-.27-.41s0,.06,0,.08h0l0,0Zm.68-.07s0,0-.06,0l0,0Z" transform="translate(-15.93 -14.95)"/></g><polygon class="cls-4" points="1535.27 92.52 1535.27 92.52 1535.27 92.52 1535.27 92.52"/><polygon class="cls-4" points="1537.33 93.01 1537.33 93.01 1537.33 93.01 1537.33 93.01"/><path class="cls-4" d="M1567.61,91.13a.51.51,0,0,0-.4,0v0l.13,0a.54.54,0,0,1,.27-.07Z" transform="translate(-15.93 -14.95)"/><polygon class="cls-4" points="1548.99 87.02 1548.99 87.02 1548.99 87.02 1548.99 87.02"/><polygon points="1544.66 81.31 1544.66 81.31 1544.66 81.31 1544.66 81.31"/><rect x="1551.53" y="85.94"/><path d="M1574.47,93.4a7.51,7.51,0,0,0-1.5-.68l-.08.17a2,2,0,0,1-.54-.08l0,0a13.1,13.1,0,0,1,2.41,1.11l.19-.3Z" transform="translate(-15.93 -14.95)"/><path d="M1565,101.7a9.25,9.25,0,0,0,7.26-.22,8.61,8.61,0,0,0,2.43-1.09,9.2,9.2,0,0,0,2.39-1.45l.12.2a.6.6,0,0,0,.08-.08l-.14-.13.23-.29h.12a2.41,2.41,0,0,0,.1-3.09l-.21.1c-.45-.36-.75-1-1.25-1.25l-.22.29.22.16s0,.11,0,.11c.43,0,.58.52.69.88h0c1,1.69-.88,3-2.19,3.9l0-.29c-7,3.25-9,1.94-14.24-3l-.05-.07-.11,2.34-.29,0,.28,0c-4.22,10.85-14.56,8.43-4.79-2.12.83-.89,2-.84,2.59-1.93,1.4-1.73-1.47-1-2.1-.18-2.87,3.14-8.86,7.58-5.15,12.12l0,.07a2.67,2.67,0,0,0,.46.43l.07,0a2.8,2.8,0,0,0,1.79.45h.08c3.76-.65,6.82-3.71,8.48-7a1.34,1.34,0,0,1-.09-.46h0c0-.24-.55-1.83-.63-2.1l.94,1.35a.55.55,0,0,1,.42.33l-.1.06h0l.1-.06c.33.19,1.66,1.19,2,1.42l-1.72-.58c.19.13.44.27.64.39.6-.14,1.07.52,1.67.64Z" transform="translate(-15.93 -14.95)"/><path class="cls-2" d="M1012.13,68.78h0s0,0,0,.06A.13.13,0,0,0,1012.13,68.78Z" transform="translate(-15.93 -14.95)"/><path class="cls-2" d="M1027.29,76.79c-.28-1.5-1.37-3.28-2.87-3.69a2.74,2.74,0,0,0-.43-.3,3.66,3.66,0,0,0-3.07-1.55c-2.83-1-5.7-2.15-8.76-2.21a1.11,1.11,0,0,0,0-.17l-1.48.19h0l1.47-.28a2.59,2.59,0,0,0-1.8-2.2c1.6-3.94,2.45-9.9-1.12-12.95-2-1.38-4.52.1-5.5,2.09a24.2,24.2,0,0,0-2.22,7.06c-.57,1.36-1.42,2.87-.77,4.49a1.87,1.87,0,0,0-1.77-.34h0a12.59,12.59,0,0,1-2.68.58c-1.81-1.17-6.32,1.29-7.86,2.54-2.6,2-1.89,5.43,1.49,5.87H990a23.81,23.81,0,0,0,4.82.48c-.53,1-2.2,1.3-2.69,2.26-1,1.5,1.28,3.3,2.52,2a1.54,1.54,0,0,0,.54.07,6.8,6.8,0,0,0-.19,6.18l1.33-.68-1.28.8a5.58,5.58,0,0,0,.39.63l1.2-.91-1.14,1,.12.16,1.21-.88h0l-1.15,1c3.91,5.37,11.52-.75,13.84-4.88a1.55,1.55,0,0,0,.72.17,10.39,10.39,0,0,0,6.35,1.22,17.6,17.6,0,0,0,6.61-2.33C1025.56,81.43,1027.54,79.43,1027.29,76.79Zm-6.83,1.78c-4.47,1.77-6.57,2-10.21-1.54-1-.77-1.94-2.18-3.24-2.43a1.84,1.84,0,0,0,0-.57,18.24,18.24,0,0,0,3-2.24c.52.95,1.74,1.6,2.65.71a1.74,1.74,0,0,0,2.19.42,1.4,1.4,0,0,0,.49.24C1017.19,74.58,1026.57,76.29,1020.46,78.57Zm-15.11-.08a9.34,9.34,0,0,1-5.5,6.23,2,2,0,0,1-.14-.34A11.5,11.5,0,0,1,1005.4,77Zm4.1-8.32.33.23v0l-.33-.26Zm1.19-1.22Zm-10.37,1a1.49,1.49,0,0,0,1.07-1.67,2.56,2.56,0,0,0,.48.33,2.81,2.81,0,0,0-.78,1c-2.09,1.89-4.59,2.12-7.27,2.42h-.08l-.53-.06,0,0a.64.64,0,0,0,.1-.13C995.46,70.64,997.88,70.58,1000.27,69.94Zm-3.52,17Z" transform="translate(-15.93 -14.95)"/><path class="cls-3" d="M811.46,83.77h6.85l30.54,68.49h-10l-9.08-20.18h-29l-8.51,20.18h-10Zm14.32,39.63-11-24.66L804.61,123.4Z" transform="translate(-15.93 -14.95)"/><path class="cls-3" d="M852.18,94.39h8.29v50.33h26v7.54H852.18Z" transform="translate(-15.93 -14.95)"/><path class="cls-3" d="M891.22,94.39H924v7.38H899.51v17.64H923.2v7.41H899.51v18h25.31v7.38h-33.6Z" transform="translate(-15.93 -14.95)"/><path class="cls-3" d="M973,94.39h10L959.85,122.3l24.76,30h-10l-19.7-24-19.9,24H924.88l24.9-30L926.66,94.39h10.11l18.16,22.1Z" transform="translate(-15.93 -14.95)"/><path class="cls-3" d="M1025.11,93.65h3.39v32.47H1035v7h-6.47v19.1h-8.07v-19.1H996V129.6Zm-4.68,32.47V109.35L1007,126.12Z" transform="translate(-15.93 -14.95)"/><path class="cls-3" d="M1105.69,84.16h9.75v68.1h-9.75V122.62h-38.26v29.64h-9.75V84.16h9.75V113.6h38.26Z" transform="translate(-15.93 -14.95)"/><path class="cls-2" d="M1154.73,93.56q13.41,0,22.33,8.5a28.14,28.14,0,0,1,8.92,21.29,27.71,27.71,0,0,1-9,21.18q-9,8.39-22.71,8.39-13.08,0-21.79-8.39a28,28,0,0,1-8.72-21q0-13,8.78-21.45T1154.73,93.56Zm.33,7.87q-9.93,0-16.33,6.22a21.16,21.16,0,0,0-6.39,15.86,20.83,20.83,0,0,0,6.41,15.58A23.82,23.82,0,0,0,1171,139a21.16,21.16,0,0,0,6.48-15.78,20.68,20.68,0,0,0-6.48-15.47A22,22,0,0,0,1155.06,101.43Z" transform="translate(-15.93 -14.95)"/><path class="cls-3" d="M1193.17,152.26V94.31h18.35q8.28,0,13.21,4.47t4.93,12a16,16,0,0,1-2.53,8.95,14.47,14.47,0,0,1-6.91,5.66q-4.4,1.75-12.6,1.76h-6.13v25.1Zm16.9-50.58h-8.58v18.1h9.08c3.36,0,6-.79,7.78-2.38a8.53,8.53,0,0,0,2.74-6.81Q1221.09,101.68,1210.07,101.68Z" transform="translate(-15.93 -14.95)"/><path class="cls-3" d="M1234.32,94.39h32.81v7.38h-24.52v17.64h23.69v7.41h-23.69v18h25.31v7.38h-33.6Z" transform="translate(-15.93 -14.95)"/><path class="cls-4" d="M1007.9,53.06h0c.37,0-.24-.06-.24-.08v0h0l0,0,0,.07h.08l.08,0Z" transform="translate(-15.93 -14.95)"/><path class="cls-4" d="M1007.83,53.19l.15-.08-.12,0Z" transform="translate(-15.93 -14.95)"/><path class="cls-4" d="M985.74,72.24h0Z" transform="translate(-15.93 -14.95)"/><polygon class="cls-4" points="991.61 37.99 991.61 37.99 991.69 38.03 991.69 38.02 991.61 37.99"/><path class="cls-4" d="M994.56,67.17l.32-.07v0l-.29.06.27-.22h-.07a.71.71,0,0,1-.23.19Z" transform="translate(-15.93 -14.95)"/><polygon class="cls-4" points="967.54 58.69 967.54 58.68 967.54 58.68 967.54 58.69"/><polygon points="974.26 58.48 974.26 58.48 974.26 58.49 974.26 58.48"/><path d="M986.62,69.55c-.19.1-.37.19-.54.3l.27.39c.7-.36,1.35-.75,2.06-1.09l-.11-.31.53-.3v0C988.09,68.8,987.35,69.17,986.62,69.55Z" transform="translate(-15.93 -14.95)"/><path d="M984.85,74.09a16.49,16.49,0,0,0,5.41.55L990,75a20.36,20.36,0,0,0,8.52-1.37c5.87-2.6,11.15-7.35,12.22-13.93.58-3.15.7-7.6-1.77-9.95-3.86-1.66-5.14,5.16-6,7.74,0,2.46-1.91,4.51-1.67,6.84,1.85,3.25,2.82-5.21,3.24-6.37.49-1,2.56-6.39,3.52-5.4,2.17,4.82-.69,10.14-3.49,14.2l.39.37-.44.3c-.55,1.09-2.27,2.16-3.14,3.09l.94-1.8-.46.45c0,.52-.44.8-.87,1.09a13,13,0,0,1-4.41,2.49,24.2,24.2,0,0,1-6.48,1.11c-.93,0-1.78-.43-2.71-.44l0-.08-.46,0,0-.11c-.32,0-.64-.15-.93-.18a1.15,1.15,0,0,1-.91-.14l-.83.14a1.63,1.63,0,0,1,.47-1.37,1.09,1.09,0,0,1,.18-.3l-.35-.32c-.11.12-.21.26-.31.39l-.21.09a2.47,2.47,0,0,1-.55,1.3,1.16,1.16,0,0,0,.16.61l.07.1A3,3,0,0,0,984.85,74.09Z" transform="translate(-15.93 -14.95)"/><polygon points="992.06 38.08 992.06 38.08 992.06 38.08 992.06 38.08"/><polygon points="991.61 37.99 991.61 37.99 991.61 37.99 991.61 37.99"/><polygon points="967.98 59.11 967.98 59.11 967.98 59.11 967.98 59.11"/><g class="cls-5"><path class="cls-6" d="M1006.27,72.57c-1.83.89-3.64,2.26-5.45,2.91a22.46,22.46,0,0,1-3.33,2c-.29.1-.33.5-.72.47l-.07-.14a5.28,5.28,0,0,1-1.8,1.52l0-.18c-.17,0-.11.17-.1.33l-.15-.1-.28.3c-.5,0-1,.77-1.51.69l-.17.23-.09-.24c-.21.19-.25.5-.61.33l0,.07.09.06c-.07.08-.08.07-.32-.21a5.88,5.88,0,0,0,1-.58l0-.06c-.37,0-.71.37-1.08.45l0-.07c.24-.32.87-.46,1.12-.77l0-.07a10,10,0,0,0-2.35,1.37c-.21.18-.45,0-.34.45l-.27-.17c.8-1,2.38-1.25,3.22-2.26l-.18,0,0-.07c.07-.22.36-.6.56-.34l-.27.29,0,.06c.49-.1.83-.56,1.27-.77l-.07-.11-.4.13,0-.05c.32-.3.35-.77.68-1,.08-.09.24-.14.28-.25-.09-.27.11-.23.17-.35l.17.27.12-.12c.62.1.74-.46,1-.72.15,0,.32,0,.36-.25.56-.54,3-1.84,2.6-2.55a2.53,2.53,0,0,1,1.15-.92l0,.22c1.52-2,4.59-1.92,6.22-3.88a3.81,3.81,0,0,1,1.64-.6c.69-.21.9-1,1.34-1.48,1-.85,2.89.4,2.42,1.63a3.5,3.5,0,0,0-1.95,1.63A22.67,22.67,0,0,1,1006.27,72.57Zm-5.92.47c.17,0,.24-.07.2-.3h.11l0-.08-.05.09h0c-.25.18-.57.17-.6.62C1000.09,73.27,1000.18,73.07,1000.35,73Zm-5.45,3.82.06-.06-.07,0Zm-.73,2.31,0-.07-.28.21,0,.06Zm-1.91-.23c-.19.21-.76.3-.6.65l.9-.49C992.36,78.77,992.31,78.91,992.26,78.94Zm-2,2.74c.24-.15.16-.3.45-.45l0-.07-.2.12-.06-.14-.27.43C990.21,81.61,990.27,81.69,990.29,81.68Zm.2-1.57,0,.06c.22.08.41,0,.39-.33Zm-.11.13a.53.53,0,0,0-.44.36C990.11,80.5,990.31,80.46,990.38,80.24Zm1,.91c-.1,0-.26,0-.11.3l.3-.14,0-.09S991.44,81.14,991.4,81.15Zm.18-.67-.05-.07-.48.31,0,.07Zm-.17-.85a.42.42,0,0,0-.41.22C991.23,79.92,991.31,79.76,991.41,79.63Zm1.9.86.54-.3,0,0C993.5,80.23,993.3,80.37,993.31,80.49Zm-2.9,1.35c.3,0,.34-.07.34-.29Zm-.32-.22-.18.07C990.14,81.88,990.18,81.86,990.09,81.62Zm3.55-3.47V78l-.07,0v.15ZM990.1,82l0,0,.14-.07,0,0Zm.93-.57,0,.08h.11l0-.09Zm-.35-.54a.45.45,0,0,0,0,.11l.07,0,0-.06S990.68,80.89,990.68,80.9Zm.91-.1s-.05-.07-.09,0l0,.06Z" transform="translate(-15.93 -14.95)"/></g><polygon class="cls-4" points="979.49 77.36 979.49 77.36 979.49 77.36 979.49 77.36"/><polygon class="cls-4" points="982.24 78.02 982.24 78.02 982.24 78.02 982.24 78.02"/><path class="cls-4" d="M1017.3,70.54a.65.65,0,0,0-.53,0v.07l.17,0a.77.77,0,0,1,.35-.08Z" transform="translate(-15.93 -14.95)"/><polygon class="cls-4" points="997.78 70.03 997.78 70.03 997.78 70.03 997.78 70.03"/><polygon points="992.02 62.42 992.02 62.42 992.02 62.42 992.02 62.42"/><rect x="1001.17" y="68.6"/><path d="M1026.46,73.56a9.74,9.74,0,0,0-2-.9l-.11.22a2.4,2.4,0,0,1-.71-.11l0,0a18,18,0,0,1,3.21,1.48l.25-.4Z" transform="translate(-15.93 -14.95)"/><path d="M1013.82,84.62a12.38,12.38,0,0,0,9.68-.28,12.07,12.07,0,0,0,3.25-1.46c1.07-.64,2.33-1,3.18-1.94l.16.28.11-.11-.18-.18.3-.38h.16c.89-1.29,1.24-2.89.13-4.12l-.27.13c-.61-.47-1-1.26-1.68-1.66l-.29.38c.1.07.2.15.3.21s0,.15,0,.15c.58.06.78.7.93,1.17h-.05c1.27,2.24-1.18,4-2.92,5.19l0-.39c-9.34,4.33-12,2.6-19-4l-.07-.09-.14,3.12-.38,0,.37,0c-5.63,14.47-19.42,11.24-6.39-2.83,1.1-1.18,2.66-1.12,3.46-2.57,1.86-2.31-2-1.31-2.8-.24-3.84,4.19-11.82,10.11-6.88,16.17l.06.08a3.62,3.62,0,0,0,.61.57l.09.07a3.84,3.84,0,0,0,2.39.59h.11c5-.86,9.09-4.95,11.31-9.35a1.85,1.85,0,0,1-.12-.62h-.05c-.08-.31-.74-2.44-.85-2.79l1.26,1.79c.15,0,.36.09.56.44l-.14.08h0l.14-.07c.44.24,2.22,1.57,2.66,1.88l-2.28-.77c.25.17.58.37.84.52.81-.19,1.43.69,2.23.86Z" transform="translate(-15.93 -14.95)"/><path class="cls-2" d="M322.49,40.73h0v0Z" transform="translate(-15.93 -14.95)"/><path class="cls-2" d="M342.7,51.41c-.37-2-1.83-4.37-3.82-4.92a4.23,4.23,0,0,0-.58-.4A4.91,4.91,0,0,0,334.21,44c-3.78-1.33-7.6-2.87-11.69-2.94a1.64,1.64,0,0,0,0-.22l-2,.24h0l2-.37a3.43,3.43,0,0,0-2.41-2.92c2.15-5.27,3.28-13.21-1.48-17.28-2.73-1.83-6,.14-7.34,2.79a32.67,32.67,0,0,0-3,9.41c-.75,1.81-1.88,3.83-1,6a2.54,2.54,0,0,0-2.36-.46h0a16.65,16.65,0,0,1-3.57.78c-2.41-1.56-8.43,1.72-10.48,3.39-3.47,2.65-2.52,7.24,2,7.82l.1,0a31,31,0,0,0,6.43.63c-.71,1.3-2.94,1.73-3.59,3-1.37,2,1.71,4.4,3.36,2.68a2.09,2.09,0,0,0,.72.1,9.1,9.1,0,0,0-.26,8.24l1.78-.92-1.7,1.07a6.41,6.41,0,0,0,.52.85l1.6-1.21L300.28,66l.16.22,1.62-1.19h0l-1.53,1.3c5.21,7.16,15.36-1,18.45-6.52a2.06,2.06,0,0,0,1,.23,13.81,13.81,0,0,0,8.47,1.63,23.69,23.69,0,0,0,8.81-3.11C340.39,57.6,343,54.93,342.7,51.41Zm-9.1,2.38c-6,2.35-8.76,2.67-13.62-2.06-1.36-1-2.58-2.9-4.32-3.23a2.87,2.87,0,0,0,0-.77,23.84,23.84,0,0,0,4-3c.7,1.27,2.32,2.13,3.54,1a2.34,2.34,0,0,0,2.91.56,2.24,2.24,0,0,0,.66.32C329.23,48.47,341.73,50.75,333.6,53.79Zm-20.16-.11a12.41,12.41,0,0,1-7.32,8.3,1.89,1.89,0,0,1-.19-.44,15.31,15.31,0,0,1,7.58-9.81Zm5.47-11.09.45.31v0l-.44-.34ZM320.5,41Zm-13.83,1.31a2,2,0,0,0,1.43-2.23,2.52,2.52,0,0,0,.64.44,3.93,3.93,0,0,0-1.05,1.29c-2.77,2.53-6.11,2.83-9.68,3.23h-.11a4.68,4.68,0,0,1-.71-.08l-.05-.06.14-.16C300.26,43.21,303.49,43.13,306.67,42.28ZM302,65Z" transform="translate(-15.93 -14.95)"/><path class="cls-3" d="M54.93,60.72h9.13L104.77,152H91.47l-12.1-26.91H40.63L29.28,152H15.93ZM74,113.56,59.37,80.67,45.79,113.56Z" transform="translate(-15.93 -14.95)"/><path class="cls-3" d="M109.22,74.88h11V142H155v10H109.22Z" transform="translate(-15.93 -14.95)"/><path class="cls-3" d="M161.28,74.88H205v9.83h-32.7v23.53h31.59v9.89H172.32v24h33.75v9.83H161.28Z" transform="translate(-15.93 -14.95)"/><path class="cls-3" d="M270.29,74.88h13.35L252.77,112.1l33,39.94H272.45l-26.28-32-26.52,32h-13.5l33.21-39.95L208.53,74.88H222l24.21,29.47Z" transform="translate(-15.93 -14.95)"/><path class="cls-3" d="M339.79,73.89h4.53v43.3h8.61v9.39h-8.61V152H333.55V126.58H300.91v-4.75Zm-6.24,43.3V94.82l-17.86,22.37Z" transform="translate(-15.93 -14.95)"/><path class="cls-3" d="M447.24,61.24h13V152h-13V112.52h-51V152h-13V61.24h13V100.5h51Z" transform="translate(-15.93 -14.95)"/><path class="cls-2" d="M512.61,73.78q17.89,0,29.78,11.32t11.89,28.39q0,17.06-12,28.25T512,152.92q-17.44,0-29.06-11.18t-11.62-28q0-17.29,11.7-28.61T512.61,73.78Zm.45,10.49q-13.24,0-21.77,8.29t-8.53,21.15a27.67,27.67,0,0,0,8.56,20.76q8.55,8.29,21.41,8.29t21.54-8.45a28.23,28.23,0,0,0,8.64-21,27.58,27.58,0,0,0-8.64-20.63A29.32,29.32,0,0,0,513.06,84.27Z" transform="translate(-15.93 -14.95)"/><path class="cls-3" d="M563.87,152V74.77h24.47q11,0,17.61,6t6.58,16a21.45,21.45,0,0,1-3.37,11.93,19.25,19.25,0,0,1-9.23,7.54q-5.85,2.36-16.78,2.35H575V152ZM586.4,84.6H575v24.14h12.1q6.73,0,10.38-3.18t3.64-9.08Q601.09,84.6,586.4,84.6Z" transform="translate(-15.93 -14.95)"/><path class="cls-3" d="M618.74,74.88h43.74v9.83H629.79v23.53h31.59v9.89H629.79v24h33.74v9.83H618.74Z" transform="translate(-15.93 -14.95)"/><path class="cls-4" d="M316.85,19.77l0,0c.49,0-.32-.07-.32-.1v0h0l0,0,0,.09h.11l.11.06A.24.24,0,0,0,316.85,19.77Z" transform="translate(-15.93 -14.95)"/><path class="cls-4" d="M316.75,20l.2-.11-.16,0Z" transform="translate(-15.93 -14.95)"/><path class="cls-4" d="M287.3,45.35h0Z" transform="translate(-15.93 -14.95)"/><polygon class="cls-4" points="300.43 4.66 300.43 4.66 300.54 4.72 300.54 4.7 300.43 4.66"/><path class="cls-4" d="M299.06,38.58l.42-.09v0l-.39.09.36-.3h-.1a.84.84,0,0,1-.31.25Z" transform="translate(-15.93 -14.95)"/><polygon class="cls-4" points="268.34 32.26 268.34 32.26 268.34 32.26 268.34 32.26"/><polygon points="277.3 31.99 277.3 31.99 277.3 31.99 277.3 31.99"/><path d="M288.47,41.77a6.85,6.85,0,0,0-.71.39l.35.52c.93-.49,1.81-1,2.75-1.45l-.15-.42c.17-.09.55-.32.71-.4v-.06C290.43,40.76,289.44,41.25,288.47,41.77Z" transform="translate(-15.93 -14.95)"/><path d="M286.12,47.82a22.2,22.2,0,0,0,7.21.73L293,49c3.83,0,7.79-.19,11.36-1.82,7.84-3.48,14.88-9.8,16.3-18.59.77-4.19.94-10.13-2.36-13.26-5.15-2.21-6.85,6.88-7.94,10.33-.05,3.28-2.56,6-2.23,9.11,2.47,4.34,3.76-6.95,4.31-8.49.66-1.34,3.43-8.52,4.7-7.2,2.89,6.42-.92,13.52-4.65,18.93l.51.5-.58.39c-.74,1.46-3,2.89-4.19,4.13l1.26-2.41-.62.61c0,.69-.58,1.06-1.15,1.45-1.51,1.57-4,2.56-5.89,3.32a31.76,31.76,0,0,1-8.63,1.48c-1.25.05-2.38-.57-3.61-.59l0-.1-.61,0,0-.15c-.43,0-.86-.2-1.24-.24a1.5,1.5,0,0,1-1.21-.19l-1.11.18a2.17,2.17,0,0,1,.63-1.82.93.93,0,0,1,.24-.39l-.47-.43c-.14.16-.28.34-.41.51l-.29.12a3.27,3.27,0,0,1-.72,1.74,1.53,1.53,0,0,0,.21.81l.1.14A4.12,4.12,0,0,0,286.12,47.82Z" transform="translate(-15.93 -14.95)"/><polygon points="301.03 4.79 301.03 4.79 301.03 4.79 301.03 4.79"/><polygon points="300.43 4.66 300.43 4.66 300.43 4.66 300.43 4.66"/><polygon points="268.92 32.83 268.92 32.83 268.92 32.83 268.92 32.83"/><g class="cls-5"><path class="cls-6" d="M314.68,45.78c-2.44,1.19-4.87,3-7.27,3.88A30.33,30.33,0,0,1,303,52.4c-.38.13-.44.67-1,.63l-.09-.19a7.13,7.13,0,0,1-2.4,2l-.06-.24c-.24,0-.15.23-.14.43l-.2-.12-.38.4c-.66-.06-1.34,1-2,.91l-.22.31-.12-.32c-.27.26-.34.66-.82.44l0,.09.12.08c-.09.11-.1.1-.42-.28a8.37,8.37,0,0,0,1.38-.76l0-.09c-.5,0-.95.5-1.43.6l-.07-.1c.32-.42,1.16-.61,1.49-1l-.06-.09a13.7,13.7,0,0,0-3.13,1.82c-.27.24-.6,0-.45.6l-.36-.22c1.06-1.39,3.17-1.67,4.3-3l-.24,0-.07-.09c.09-.29.48-.79.74-.46l-.35.4,0,.07c.66-.13,1.11-.74,1.7-1l-.1-.14-.53.16-.05-.06c.42-.41.46-1,.9-1.39.11-.12.32-.18.38-.33-.13-.36.14-.3.22-.46l.23.35.16-.16c.82.13,1-.61,1.4-1,.21,0,.43-.06.48-.32.74-.73,3.95-2.46,3.47-3.41a3.48,3.48,0,0,1,1.53-1.23l.06.29c2-2.6,6.13-2.55,8.3-5.17a5.07,5.07,0,0,1,2.18-.8c.93-.28,1.21-1.31,1.79-2,1.28-1.14,3.85.53,3.24,2.18A4.63,4.63,0,0,0,319.78,42,30.39,30.39,0,0,1,314.68,45.78Zm-7.9.64c.22,0,.32-.09.27-.41h.14l-.07-.11-.06.11h0c-.34.24-.77.22-.81.83C306.43,46.72,306.55,46.45,306.78,46.42Zm-7.26,5.09.07-.08-.1.06Zm-1,3.07-.06-.08-.37.27.06.08Zm-2.54-.3c-.25.29-1,.4-.8.86.41-.21.8-.43,1.2-.65C296.13,54.05,296.06,54.24,296,54.28Zm-2.62,3.66c.31-.2.21-.41.6-.6l-.07-.1-.26.16-.09-.19-.35.57C293.25,57.83,293.35,58,293.37,57.94Zm.26-2.1,0,.08c.3.1.55-.07.53-.44Zm-.14.18a.68.68,0,0,0-.59.48C293.13,56.36,293.39,56.31,293.49,56Zm1.35,1.21c-.13,0-.34,0-.15.4l.41-.19-.05-.12C295,57.29,294.89,57.22,294.84,57.23Zm.24-.9-.06-.09-.64.42.05.09Zm-.23-1.13a.52.52,0,0,0-.53.29C294.62,55.59,294.73,55.38,294.85,55.2Zm2.54,1.14.72-.39-.05-.07C297.64,56,297.38,56.18,297.39,56.34Zm-3.87,1.81c.41-.06.46-.1.46-.38Zm-.41-.3-.25.1C293.16,58.2,293.21,58.17,293.11,57.85Zm4.72-4.63V53l-.08-.06v.2Zm-4.72,5.15,0,.05.18-.11,0,0Zm1.24-.75.06.11.14,0-.06-.11Zm-.47-.73a.68.68,0,0,0,0,.14l.1,0-.05-.08Zm1.22-.12c0-.07-.06-.11-.12,0l0,.09Z" transform="translate(-15.93 -14.95)"/></g><polygon class="cls-4" points="284.28 57.16 284.28 57.16 284.28 57.16 284.28 57.16"/><polygon class="cls-4" points="287.94 58.04 287.94 58.04 287.94 58.04 287.94 58.04"/><path class="cls-4" d="M329.38,43.07a.92.92,0,0,0-.71,0v.08l.22.07a1,1,0,0,1,.48-.11Z" transform="translate(-15.93 -14.95)"/><polygon class="cls-4" points="308.66 47.38 308.66 47.38 308.66 47.38 308.66 47.38"/><polygon points="300.98 37.23 300.98 37.23 300.98 37.23 300.98 37.23"/><rect x="313.18" y="45.47"/><path d="M341.59,47.11a12.89,12.89,0,0,0-2.68-1.21l-.14.3a3.76,3.76,0,0,1-.95-.14l0,0a23.86,23.86,0,0,1,4.28,2l.33-.54Z" transform="translate(-15.93 -14.95)"/><path d="M324.74,61.86c4.11,1.85,8.87,1.28,12.9-.38A16.06,16.06,0,0,0,342,59.53c1.42-.85,3.11-1.31,4.24-2.58l.22.36.14-.14-.25-.23c.18-.21.27-.33.41-.51H347c1.2-1.71,1.65-3.85.18-5.5l-.37.18c-.81-.63-1.34-1.68-2.24-2.21l-.38.51.4.28,0,.2c.77.07,1,.93,1.23,1.55h-.05c1.68,3-1.58,5.39-3.9,6.93l0-.52c-12.45,5.77-16,3.46-25.33-5.3l-.08-.12-.19,4.16-.51.06.5,0c-7.51,19.3-25.9,15-8.52-3.76,1.47-1.58,3.55-1.5,4.6-3.44,2.49-3.07-2.61-1.75-3.73-.31-5.11,5.58-15.76,13.48-9.16,21.55l.08.11a4.14,4.14,0,0,0,.81.76l.12.09a5.08,5.08,0,0,0,3.18.8h.15C310.5,71.34,315.94,65.9,318.9,60a2.5,2.5,0,0,1-.17-.82h-.06c-.1-.42-1-3.24-1.13-3.72l1.67,2.4c.21,0,.49.11.75.58l-.18.1h0l.19-.1c.58.33,2.95,2.1,3.54,2.52l-3-1c.33.23.77.49,1.12.69,1.08-.25,1.9.92,3,1.14Z" transform="translate(-15.93 -14.95)"/><path class="cls-2" d="M326.19,530.33h0c0,.17.05.34.05.5C326.21,530.68,326.21,530.5,326.19,530.33Z" transform="translate(-15.93 -14.95)"/><path class="cls-2" d="M453.1,597.44c-2.31-12.53-11.49-27.45-24-30.93a28,28,0,0,0-3.61-2.49c-4.86-8.59-15.69-12.46-25.72-13-23.72-8.37-47.7-18-73.36-18.45,0-.46-.07-.94-.13-1.41l-12.46,1.51h0l12.35-2.34c-.18-8.56-7.31-15.49-15.11-18.34,13.47-33.08,20.57-82.92-9.32-108.52-17.14-11.48-37.9.9-46.06,17.52-9.89,18.3-14.78,38.88-18.64,59.14-4.77,11.35-11.86,24-6.43,37.58-4.31-2.84-9.72-5.08-14.79-2.85h0a106.32,106.32,0,0,1-22.47,4.86c-15.14-9.8-52.91,10.79-65.79,21.29-21.8,16.65-15.86,45.47,12.46,49.11l.63.14c13.6,1.67,26.72,5.09,40.39,4-4.44,8.17-18.42,10.89-22.5,19-8.62,12.49,10.72,27.63,21.08,16.88a12.93,12.93,0,0,0,4.55.62c-8.09,15.49-10.16,35.64-1.65,51.73l11.16-5.75L183,683.42a36.55,36.55,0,0,0,3.27,5.28l10-7.58-9.56,8.18,1,1.36,10.13-7.43h0l-9.6,8.11c32.71,45,96.48-6.34,115.87-40.91a12.89,12.89,0,0,0,6,1.45c16.24,8.39,35.13,13.23,53.17,10.23,20.41-3.48,37.67-8.77,55.32-19.56C438.59,636.31,455.16,619.53,453.1,597.44Zm-57.17,14.93c-37.46,14.76-55,16.74-85.5-13-8.57-6.39-16.21-18.21-27.13-20.3a17.88,17.88,0,0,0,.25-4.82,147.11,147.11,0,0,0,25.17-18.72c4.39,8,14.56,13.38,22.25,6,4.15,5.13,12.56,7.12,18.29,3.49a12.4,12.4,0,0,0,4.13,2C368.53,579,447,593.24,395.93,612.37Zm-126.56-.69c-5.41,22.45-24.27,44.1-46,52.13a13.86,13.86,0,0,1-1.19-2.78c4.56-23.82,24.63-49.77,47.61-61.61ZM303.73,542l2.79,1.91a1.59,1.59,0,0,0-.07.2L303.73,542Zm10-10.22Zm-86.89,8.29a12.61,12.61,0,0,0,9-14,17.31,17.31,0,0,0,4,2.79c-2.18,2.2-5.64,5.06-6.55,8.09-17.45,15.85-38.39,17.79-60.84,20.26l-.64,0a31.05,31.05,0,0,1-4.5-.56l-.31-.32c.3-.32.6-.68.87-1C186.61,545.9,206.86,545.41,226.82,540.11ZM197.4,682.61Z" transform="translate(-15.93 -14.95)"/><path class="cls-4" d="M290.76,398.7l-.26-.09c3.08-.08-2-.47-2-.63a.65.65,0,0,0,0,.13l-.2,0,.22.13a3.06,3.06,0,0,0,.27.58l.66-.07.68.38A1.52,1.52,0,0,0,290.76,398.7Z" transform="translate(-15.93 -14.95)"/><path class="cls-4" d="M290.13,399.85l1.26-.67-1,.14C290.31,399.51,290.22,399.69,290.13,399.85Z" transform="translate(-15.93 -14.95)"/><path class="cls-4" d="M105.17,559.36a6,6,0,0,0,1.18-.09l-1.15,0Z" transform="translate(-15.93 -14.95)"/><polygon class="cls-4" points="271.77 382.77 271.77 382.77 272.41 383.12 272.43 382.98 271.77 382.77"/><path class="cls-4" d="M179,516.87c.92-.17,1.81-.37,2.67-.58l0-.25-2.45.53,2.28-1.86-.62,0a5.82,5.82,0,0,1-1.94,1.56Z" transform="translate(-15.93 -14.95)"/><polygon class="cls-4" points="70.2 556.06 70.21 556.05 70.21 556.05 70.2 556.06"/><polygon points="126.47 554.38 126.47 554.38 126.47 554.39 126.47 554.38"/><path d="M112.56,536.85a51.08,51.08,0,0,0-4.49,2.46l2.2,3.3c5.86-3.07,11.35-6.26,17.27-9.14l-.91-2.62c1.07-.58,3.41-2,4.46-2.52l0-.34C124.83,530.52,118.65,533.64,112.56,536.85Z" transform="translate(-15.93 -14.95)"/><path d="M97.77,574.87A139.23,139.23,0,0,0,143,579.44l-2,2.59c24-.11,48.92-1.19,71.36-11.45,49.18-21.81,93.4-61.54,102.35-116.7,4.84-26.32,5.89-63.63-14.86-83.3-32.32-13.86-43,43.23-49.85,64.86-.31,20.6-16,37.75-14,57.24,15.49,27.22,23.57-43.64,27.07-53.3,4.12-8.43,21.5-53.55,29.48-45.24C310.8,434.48,286.9,479,263.46,513l3.22,3.16L263,518.63c-4.61,9.11-19,18.11-26.27,25.88l7.91-15.1-3.88,3.83c.22,4.36-3.69,6.66-7.28,9.1-9.44,9.86-25.21,16.09-37,20.87-17.86,6.44-36,7.88-54.23,9.26-7.8.31-14.93-3.58-22.65-3.7l.18-.62-3.82-.32-.16-1c-2.72-.28-5.4-1.23-7.78-1.48-2.47.41-5.67.52-7.63-1.2l-6.94,1.15c0-4,.33-8.87,4-11.45a6.24,6.24,0,0,1,1.5-2.47l-3-2.68A41,41,0,0,0,93.39,552c-.58.23-1.19.46-1.8.74.11,4.12-2.48,7.55-4.55,10.94a9.54,9.54,0,0,0,1.34,5.06l.59.88C90.32,571.6,95.62,574,97.77,574.87Z" transform="translate(-15.93 -14.95)"/><polygon points="275.52 383.56 275.52 383.56 275.52 383.56 275.52 383.56"/><polygon points="271.77 382.77 271.77 382.77 271.77 382.77 271.77 382.77"/><polygon points="73.88 559.65 73.88 559.65 73.88 559.65 73.88 559.65"/><g class="cls-5"><path class="cls-6" d="M277.14,562.06c-15.34,7.49-30.56,19-45.67,24.37-9.08,6.4-18.36,12.77-27.9,17.22-2.44.82-2.78,4.18-6,3.93l-.54-1.19c-4.26,5.2-8.92,9.77-15.08,12.76l-.41-1.51c-1.48-.26-.91,1.43-.84,2.72l-1.27-.8c-.82.88-1.6,1.7-2.38,2.52-4.19-.36-8.45,6.45-12.65,5.76L163,629.79c-.33-.89-.53-1.46-.73-2-1.75,1.61-2.15,4.13-5.15,2.73l.18.59.73.5c-.55.67-.65.62-2.64-1.73,3.25-1.18,5.8-3.15,8.7-4.84l-.26-.5c-3.13.08-6,3.09-9,3.72l-.42-.61c2-2.66,7.27-3.85,9.4-6.4l-.41-.61a84.74,84.74,0,0,0-19.63,11.46c-1.74,1.5-3.78,0-2.87,3.77l-2.22-1.39c6.63-8.73,19.85-10.49,27-18.92l-1.51.3-.41-.57c.53-1.82,3-5,4.62-2.88-.73.82-1.46,1.66-2.2,2.48l.24.45c4.12-.84,6.93-4.65,10.62-6.43l-.61-.89L173,609l-.33-.36c2.65-2.56,2.9-6.43,5.66-8.73.7-.75,2-1.13,2.38-2.06-.77-2.29.88-1.92,1.4-2.94l1.48,2.2,1-1c5.14.81,6.18-3.85,8.77-6.07,1.3-.27,2.71-.34,3-2,4.68-4.56,24.84-15.44,21.79-21.41a21.92,21.92,0,0,1,9.63-7.7l.38,1.84c12.74-16.33,38.48-16,52.15-32.51,3.84-2.93,8.78-4.08,13.68-5,5.81-1.73,7.57-8.21,11.24-12.38,8-7.13,24.16,3.33,20.31,13.67-7.58,3-11.87,6.22-16.38,13.67A188.62,188.62,0,0,1,277.14,562.06Zm-49.64,4c1.42.09,2.06-.56,1.74-2.52l0,0h.84l-.43-.67-.41.68h0v0c-2.16,1.47-4.83,1.39-5.09,5.18C225.33,567.93,226.1,566.27,227.5,566.05Zm-45.58,32,.43-.49-.58.33Zm-6.18,19.29-.39-.54L173,618.5l.39.55Zm-16-1.87c-1.58,1.77-6.36,2.5-5,5.39,2.54-1.34,5-2.69,7.52-4.08C160.65,614,160.21,615.19,159.75,615.47ZM143.3,638.4c2-1.23,1.32-2.54,3.76-3.76l-.41-.6-1.66,1-.56-1.21c-.71,1.2-1.41,2.31-2.2,3.59C142.58,637.76,143.16,638.47,143.3,638.4Zm1.64-13.14.25.47c1.88.67,3.45-.43,3.32-2.73C147.2,623.83,146.07,624.56,144.94,625.26Zm-.89,1.09a4.28,4.28,0,0,0-3.66,3C141.78,628.51,143.45,628.16,144.05,626.35Zm8.52,7.61c-.82.17-2.16-.23-.94,2.53.88-.39,1.71-.8,2.55-1.2l-.31-.77C153.43,634.32,152.88,633.9,152.57,634Zm1.49-5.63-.36-.55-4.07,2.58.34.58Zm-1.42-7.11c-1.66-.23-2.57.72-3.37,1.82C151.16,623.67,151.85,622.34,152.64,621.22Zm15.93,7.17,4.5-2.46-.32-.46C170.16,626.28,168.47,627.38,168.57,628.39Zm-24.31,11.35c2.57-.36,2.89-.59,2.88-2.4C146.21,638.17,145.23,638.94,144.26,639.74Zm-2.61-1.88-1.54.63C142,640,142.33,639.87,141.65,637.86Zm29.68-29.06.06-1.26-.53-.42,0,1.29Zm-29.65,32.33.18.3,1.15-.65-.18-.3Zm7.81-4.72.33.67.9-.15-.35-.69Zm-3-4.57a6,6,0,0,0,.1.9l.61-.21-.31-.52C146.79,631.94,146.53,631.78,146.53,631.84Zm7.64-.79c-.23-.4-.4-.65-.75-.22l.34.55Z" transform="translate(-15.93 -14.95)"/></g><polygon class="cls-4" points="170.31 712.47 170.32 712.46 170.32 712.46 170.31 712.47"/><polygon class="cls-4" points="193.28 717.97 193.28 717.97 193.28 717.97 193.28 717.97"/><path class="cls-4" d="M369.46,545.06a5.56,5.56,0,0,0-4.43.25l-.12.51,1.41.41a6.33,6.33,0,0,1,3-.69Z" transform="translate(-15.93 -14.95)"/><polygon class="cls-4" points="323.43 651.06 323.43 651.06 323.43 651.06 323.43 651.06"/><polygon points="275.2 587.31 275.19 587.31 275.19 587.31 275.2 587.31"/><rect x="351.83" y="639.06"/><path d="M446.12,570.39c-4.95-4.17-11.36-4.72-16.82-7.56l-.88,1.86c-1.51-.11-4.6-.27-6-.89l-.22.24c10.73,4,18.2,7.18,26.86,12.42l2.07-3.4Q448.6,571.64,446.12,570.39Z" transform="translate(-15.93 -14.95)"/><path d="M340.31,663c25.82,11.63,55.73,8.06,81.05-2.37,9.51-3.75,19.19-5.86,27.2-12.24,9-5.32,19.55-8.2,26.68-16.19l1.33,2.28c.31-.31.63-.61.93-.92l-1.57-1.45c1.12-1.33,1.65-2.06,2.56-3.21l1.32.12c7.5-10.8,10.35-24.19,1.14-34.57l-2.34,1.12c-5.08-4-8.39-10.54-14.05-13.9l-2.41,3.23c.83.55,1.71,1.18,2.5,1.75,0,.05.25,1.22.26,1.26,4.82.47,6.54,5.84,7.76,9.76l-.35,0c10.56,18.81-9.89,33.9-24.49,43.51l.26-3.26c-78.2,36.27-100.21,21.75-159-33.29l-.56-.75L287.29,630l-3.19.36,3.13.26C240.07,751.85,124.62,724.78,233.74,607c9.23-9.9,22.28-9.41,28.92-21.58,15.6-19.29-16.45-11-23.43-2-32.12,35-99,84.64-57.57,135.35l.52.69a27.24,27.24,0,0,0,5.07,4.79l.79.55c5.89,4,13.14,5.37,20,5l.89-.05c42-7.19,76.17-41.4,94.74-78.3-.42-1.32-1.22-3.64-1-5.16l-.4.1c-.63-2.63-6.19-20.4-7.1-23.4l10.51,15.05c1.27,0,3,.75,4.7,3.66l-1.14.65,0,0,1.14-.63c3.69,2,18.55,13.19,22.26,15.77l-19.12-6.44c2.1,1.44,4.87,3.06,7.08,4.36,6.77-1.59,11.93,5.77,18.68,7.16Z" transform="translate(-15.93 -14.95)"/><path class="cls-2" d="M1068.33,536.28h0c0,.11,0,.23,0,.35A2.3,2.3,0,0,0,1068.33,536.28Z" transform="translate(-15.93 -14.95)"/><path class="cls-2" d="M1158.1,583.75c-1.63-8.86-8.12-19.41-17-21.88a21.71,21.71,0,0,0-2.56-1.76c-3.43-6.07-11.09-8.81-18.19-9.19-16.78-5.92-33.74-12.74-51.89-13,0-.33,0-.66-.09-1l-8.82,1.07h0l8.74-1.65c-.13-6.06-5.17-11-10.69-13,9.53-23.39,14.55-58.65-6.59-76.76-12.12-8.12-26.81.64-32.58,12.39-7,12.95-10.46,27.5-13.19,41.84-3.37,8-8.39,17-4.54,26.58-3.05-2-6.88-3.6-10.47-2h0a75.1,75.1,0,0,1-15.89,3.44c-10.71-6.93-37.43,7.63-46.53,15.06-15.43,11.77-11.23,32.16,8.81,34.74l.44.09c9.62,1.19,18.9,3.61,28.57,2.81-3.14,5.77-13,7.7-15.91,13.43-6.1,8.84,7.58,19.55,14.9,12a9.21,9.21,0,0,0,3.22.43c-5.72,11-7.18,25.22-1.16,36.6l7.89-4.07-7.54,4.75a25.1,25.1,0,0,0,2.31,3.74l7.08-5.37-6.76,5.79.71,1,7.17-5.26h0l-6.79,5.73c23.13,31.81,68.24-4.48,82-28.94a8.94,8.94,0,0,0,4.27,1c11.48,5.94,24.85,9.36,37.61,7.24,14.43-2.46,26.64-6.21,39.13-13.84C1147.84,611.25,1159.56,599.38,1158.1,583.75Zm-40.43,10.56c-26.51,10.44-38.91,11.85-60.49-9.16-6.06-4.52-11.46-12.88-19.18-14.36a12.69,12.69,0,0,0,.17-3.41A104.33,104.33,0,0,0,1056,554.14c3.1,5.65,10.29,9.46,15.73,4.23,2.94,3.64,8.89,5,12.94,2.47a9.13,9.13,0,0,0,2.92,1.43C1098.28,570.68,1153.82,580.79,1117.67,594.31Zm-89.53-.48C1024.31,609.71,1011,625,995.6,630.7a10.1,10.1,0,0,1-.85-2c3.23-16.84,17.42-35.2,33.68-43.58Zm24.31-49.26,2,1.35s0,.09-.05.14l-1.92-1.49Zm7.06-7.23ZM998,543.2a8.93,8.93,0,0,0,6.39-9.93,11.58,11.58,0,0,0,2.81,2c-1.54,1.56-4,3.58-4.63,5.73-12.34,11.21-27.16,12.58-43,14.33l-.45,0a21.7,21.7,0,0,1-3.18-.39l-.22-.23c.21-.23.42-.48.61-.73C969.6,547.3,983.93,547,998,543.2ZM977.24,644Z" transform="translate(-15.93 -14.95)"/><path class="cls-4" d="M1043.27,443.17l-.18-.06c2.18-.06-1.42-.33-1.4-.44s0,.06,0,.09l-.14,0,.16.09a2.17,2.17,0,0,0,.19.41l.47-.05.48.27A1.08,1.08,0,0,0,1043.27,443.17Z" transform="translate(-15.93 -14.95)"/><path class="cls-4" d="M1042.82,444l.9-.47-.7.1C1043,443.75,1042.89,443.88,1042.82,444Z" transform="translate(-15.93 -14.95)"/><path class="cls-4" d="M912,556.82a5.13,5.13,0,0,0,.83-.06l-.82,0S912,556.79,912,556.82Z" transform="translate(-15.93 -14.95)"/><polygon class="cls-4" points="1025.18 427.53 1025.18 427.53 1025.63 427.78 1025.65 427.68 1025.18 427.53"/><path class="cls-4" d="M964.23,526.76c.65-.12,1.29-.26,1.89-.41l0-.17-1.73.37,1.61-1.32-.44,0a4,4,0,0,1-1.37,1.11Z" transform="translate(-15.93 -14.95)"/><polygon class="cls-4" points="882.6 550.11 882.61 550.1 882.61 550.1 882.6 550.11"/><polygon points="922.4 548.92 922.4 548.92 922.4 548.93 922.4 548.92"/><path d="M917.23,540.9a35.34,35.34,0,0,0-3.19,1.73l1.57,2.34c4.14-2.17,8-4.43,12.21-6.47l-.64-1.85c.75-.41,2.41-1.4,3.15-1.78v-.24A145,145,0,0,0,917.23,540.9Z" transform="translate(-15.93 -14.95)"/><path d="M906.76,567.79a98.4,98.4,0,0,0,32,3.23l-1.4,1.83c17-.07,34.6-.83,50.47-8.1,34.8-15.42,66.07-43.53,72.4-82.54,3.42-18.62,4.17-45-10.51-58.93-22.86-9.8-30.42,30.59-35.26,45.88-.22,14.57-11.35,26.71-9.89,40.49,11,19.26,16.67-30.86,19.15-37.7,2.91-6,15.21-37.88,20.85-32,12.85,28.53-4.06,60-20.64,84.08l2.28,2.24-2.61,1.74c-3.26,6.44-13.43,12.81-18.59,18.31l5.6-10.68-2.75,2.7c.16,3.09-2.6,4.71-5.14,6.44-6.68,7-17.84,11.38-26.15,14.76-12.63,4.55-25.46,5.57-38.36,6.55-5.51.22-10.56-2.53-16-2.61l.13-.44-2.7-.23-.11-.68c-1.93-.2-3.82-.87-5.51-1-1.74.29-4,.37-5.39-.85l-4.91.82c0-2.83.23-6.28,2.8-8.1a4.41,4.41,0,0,1,1.06-1.75l-2.12-1.89c-.62.69-1.25,1.5-1.81,2.27-.41.17-.84.33-1.27.53.08,2.91-1.75,5.34-3.22,7.74a6.76,6.76,0,0,0,1,3.58l.42.62C901.49,565.48,905.24,567.14,906.76,567.79Z" transform="translate(-15.93 -14.95)"/><polygon points="1027.83 428.09 1027.83 428.09 1027.83 428.09 1027.83 428.09"/><polygon points="1025.18 427.53 1025.18 427.53 1025.18 427.53 1025.18 427.53"/><polygon points="885.2 552.65 885.2 552.65 885.2 552.65 885.2 552.65"/><g class="cls-5"><path class="cls-6" d="M1033.63,558.73c-10.84,5.3-21.61,13.43-32.29,17.23-6.43,4.53-13,9-19.74,12.18-1.73.59-2,3-4.28,2.79l-.39-.85c-3,3.68-6.3,6.91-10.66,9-.16-.57-.22-.81-.29-1.07-1.05-.18-.65,1-.6,1.92l-.89-.56c-.58.63-1.14,1.2-1.69,1.78-3-.25-6,4.56-8.94,4.08l-1,1.37-.52-1.42c-1.23,1.13-1.52,2.92-3.64,1.93l.13.41.52.36c-.39.48-.46.44-1.87-1.23a37.6,37.6,0,0,0,6.15-3.42,3.9,3.9,0,0,0-.19-.35c-2.2.06-4.2,2.18-6.37,2.63l-.3-.43c1.42-1.88,5.14-2.72,6.65-4.53l-.29-.43a59.57,59.57,0,0,0-13.89,8.11c-1.23,1.06-2.67,0-2,2.66l-1.57-1c4.69-6.17,14.05-7.42,19.07-13.38l-1.07.21-.28-.4c.37-1.29,2.12-3.55,3.27-2-.52.58-1,1.18-1.57,1.75l.18.32c2.91-.59,4.9-3.29,7.51-4.55l-.43-.62L960,592l-.23-.26c1.87-1.81,2-4.55,4-6.17.5-.53,1.44-.8,1.69-1.46-.55-1.62.62-1.36,1-2.08l1,1.56.7-.68c3.64.57,4.37-2.72,6.21-4.29.91-.19,1.91-.25,2.12-1.43,3.31-3.23,17.57-10.92,15.41-15.15a15.47,15.47,0,0,1,6.81-5.44c.13.61.19.93.27,1.3,9-11.55,27.22-11.34,36.89-23,2.71-2.07,6.21-2.88,9.67-3.54,4.12-1.22,5.36-5.81,8-8.76,5.66-5,17.09,2.36,14.36,9.67-5.36,2.15-8.39,4.4-11.58,9.67A133.3,133.3,0,0,1,1033.63,558.73Zm-35.11,2.82c1,.06,1.46-.4,1.23-1.78l0,0h.6l-.3-.47-.3.48h0v0c-1.52,1-3.41,1-3.59,3.66C997,562.88,997.53,561.7,998.52,561.55Zm-32.23,22.64c.06-.08.12-.15.3-.35l-.42.23Zm-4.38,13.64-.27-.38-1.67,1.2.28.39Zm-11.31-1.32c-1.11,1.25-4.5,1.76-3.53,3.81,1.8-1,3.55-1.9,5.31-2.88C951.24,595.46,950.93,596.31,950.6,596.51ZM939,612.73c1.4-.88.93-1.8,2.66-2.66l-.29-.43-1.18.71-.39-.85c-.51.85-1,1.64-1.56,2.54C938.46,612.27,938.87,612.78,939,612.73Zm1.15-9.29.19.33c1.32.47,2.44-.31,2.34-1.94C941.73,602.42,940.93,602.94,940.12,603.44Zm-.62.76a3,3,0,0,0-2.59,2.14C937.89,605.73,939.07,605.49,939.5,604.2Zm6,5.39c-.58.12-1.53-.17-.67,1.78.62-.27,1.21-.56,1.8-.84l-.22-.55C946.13,609.84,945.74,609.54,945.53,609.59Zm1.05-4-.26-.4L943.44,607l.24.41Zm-1-5a2.4,2.4,0,0,0-2.38,1.29C944.53,602.31,945,601.37,945.57,600.57Zm11.27,5.08L960,603.9l-.23-.32C958,604.15,956.77,604.93,956.84,605.65Zm-17.19,8c1.82-.26,2-.42,2-1.7C941,612.56,940.33,613.11,939.65,613.68Zm-1.85-1.33-1.09.44C938.05,613.88,938.28,613.77,937.8,612.35Zm21-20.56.05-.89-.38-.3,0,.92Zm-21,22.87.13.21.81-.46-.13-.22Zm5.52-3.34.24.48.63-.11-.24-.49Zm-2.09-3.23a5.05,5.05,0,0,0,.07.63l.43-.14-.21-.38C941.44,608.16,941.25,608.05,941.25,608.09Zm5.4-.56c-.16-.29-.27-.46-.53-.16l.25.39Z" transform="translate(-15.93 -14.95)"/></g><polygon class="cls-4" points="953.41 660.75 953.42 660.74 953.42 660.74 953.41 660.75"/><polygon class="cls-4" points="969.66 664.63 969.66 664.63 969.66 664.63 969.66 664.63"/><path class="cls-4" d="M1098.94,546.71a3.92,3.92,0,0,0-3.13.17l-.09.36,1,.29a4.38,4.38,0,0,1,2.13-.49Z" transform="translate(-15.93 -14.95)"/><polygon class="cls-4" points="1061.72 617.31 1061.72 617.31 1061.72 617.31 1061.72 617.31"/><polygon points="1027.6 572.22 1027.6 572.22 1027.6 572.22 1027.6 572.22"/><rect x="1081.81" y="608.82"/><path d="M1153.16,564.62c-3.5-3-8-3.34-11.9-5.35l-.62,1.32a16.5,16.5,0,0,1-4.22-.63l-.15.17c7.59,2.84,12.87,5.08,19,8.78l1.46-2.4Q1154.92,565.51,1153.16,564.62Z" transform="translate(-15.93 -14.95)"/><path d="M1078.32,630.14c18.26,8.23,39.42,5.7,57.33-1.67,6.73-2.66,13.58-4.15,19.24-8.66,6.35-3.76,13.83-5.8,18.87-11.46l.94,1.61c.22-.21.45-.42.66-.64l-1.11-1c.79-.94,1.16-1.45,1.81-2.27l.94.08c5.3-7.63,7.32-17.11.8-24.44l-1.65.78c-3.6-2.79-5.94-7.45-9.94-9.83l-1.71,2.29c.59.39,1.21.84,1.77,1.24,0,0,.18.86.19.89,3.4.33,4.62,4.13,5.48,6.9l-.25,0c7.48,13.31-7,24-17.32,30.78l.18-2.31c-55.3,25.66-70.87,15.39-112.49-23.54l-.4-.53-.84,18.5-2.26.25,2.21.19c-33.36,85.73-115,66.59-37.83-16.71,6.53-7,15.76-6.65,20.46-15.26,11-13.64-11.64-7.77-16.58-1.4-22.72,24.78-70,59.87-40.72,95.74l.37.49a19.11,19.11,0,0,0,3.59,3.39l.55.39a22.72,22.72,0,0,0,14.13,3.53l.64,0c29.71-5.08,53.87-29.28,67-55.38a10.9,10.9,0,0,1-.74-3.66l-.28.07c-.44-1.86-4.37-14.42-5-16.55l7.43,10.65c.9,0,2.15.53,3.33,2.59l-.81.46h0l.81-.44c2.61,1.43,13.12,9.33,15.75,11.15l-13.53-4.55c1.49,1,3.44,2.16,5,3.08,4.79-1.12,8.44,4.09,13.21,5.07Z" transform="translate(-15.93 -14.95)"/><path class="cls-2" d="M1621.39,541.65h0a1.5,1.5,0,0,1,0,.22A1.85,1.85,0,0,0,1621.39,541.65Z" transform="translate(-15.93 -14.95)"/><path class="cls-2" d="M1677.66,571.41c-1-5.56-5.1-12.17-10.64-13.72a13.64,13.64,0,0,0-1.6-1.1c-2.16-3.81-7-5.52-11.41-5.76-10.51-3.71-21.14-8-32.52-8.18q0-.31-.06-.63l-5.52.67h0l5.47-1c-.08-3.8-3.24-6.87-6.69-8.14,6-14.66,9.11-36.76-4.14-48.11-7.59-5.09-16.8.4-20.42,7.77-4.38,8.11-6.55,17.24-8.26,26.22-2.11,5-5.26,10.65-2.85,16.66-1.91-1.26-4.31-2.25-6.56-1.26h0a46.57,46.57,0,0,1-10,2.16c-6.71-4.34-23.46,4.78-29.17,9.44-9.66,7.38-7,20.16,5.52,21.77l.29.06c6,.75,11.84,2.26,17.9,1.76-2,3.62-8.16,4.83-10,8.42-3.82,5.54,4.75,12.25,9.34,7.49a5.89,5.89,0,0,0,2,.27c-3.59,6.87-4.5,15.8-.73,22.94l5-2.55-4.73,3a14.34,14.34,0,0,0,1.45,2.35l4.43-3.36-4.23,3.62.44.61,4.49-3.3h0l-4.25,3.6c14.5,19.93,42.77-2.81,51.37-18.14a5.53,5.53,0,0,0,2.67.64c7.2,3.72,15.58,5.87,23.58,4.54,9-1.54,16.7-3.89,24.52-8.67C1671.22,588.64,1678.57,581.2,1677.66,571.41ZM1652.31,578c-16.61,6.54-24.38,7.42-37.91-5.75-3.79-2.83-7.18-8.07-12-9a8.09,8.09,0,0,0,.11-2.13,66.11,66.11,0,0,0,11.16-8.3c1.94,3.54,6.45,5.93,9.86,2.65a6.49,6.49,0,0,0,8.11,1.55,5.56,5.56,0,0,0,1.83.89C1640.16,563.21,1675,569.55,1652.31,578Zm-56.11-.31c-2.4,9.95-10.76,19.55-20.39,23.11a5.78,5.78,0,0,1-.53-1.23c2-10.56,10.91-22.06,21.1-27.32Zm15.24-30.87,1.23.84,0,.09-1.2-.93Zm4.42-4.53ZM1577.34,546a5.6,5.6,0,0,0,4-6.22,7.63,7.63,0,0,0,1.76,1.23c-1,1-2.5,2.25-2.9,3.59-7.74,7-17,7.89-27,9h-.28a13.14,13.14,0,0,1-2-.24l-.14-.15a5.81,5.81,0,0,0,.38-.46C1559.51,548.56,1568.49,548.34,1577.34,546Zm-13,63.18Z" transform="translate(-15.93 -14.95)"/><path class="cls-4" d="M1605.68,483.3l-.11,0c1.37,0-.89-.21-.88-.28l0,.06-.09,0,.1.06a1.23,1.23,0,0,0,.12.26l.29,0,.3.16A.59.59,0,0,0,1605.68,483.3Z" transform="translate(-15.93 -14.95)"/><path class="cls-4" d="M1605.4,483.81l.56-.3-.43.06A2.6,2.6,0,0,1,1605.4,483.81Z" transform="translate(-15.93 -14.95)"/><path class="cls-4" d="M1523.41,554.52a2.8,2.8,0,0,0,.52,0l-.51,0A.11.11,0,0,0,1523.41,554.52Z" transform="translate(-15.93 -14.95)"/><polygon class="cls-4" points="1588.4 467.91 1588.4 467.91 1588.68 468.07 1588.69 468.01 1588.4 467.91"/><path class="cls-4" d="M1556.14,535.69l1.19-.26v-.11l-1.09.24,1-.83H1557a2.64,2.64,0,0,1-.85.7Z" transform="translate(-15.93 -14.95)"/><polygon class="cls-4" points="1499.04 544.74 1499.04 544.74 1499.04 544.74 1499.04 544.74"/><polygon points="1523.98 544 1523.98 544 1523.98 544 1523.98 544"/><path d="M1526.68,544.55a21.89,21.89,0,0,0-2,1.08l1,1.47c2.59-1.36,5-2.78,7.65-4.05l-.4-1.17c.47-.25,1.51-.87,2-1.11v-.15A89.19,89.19,0,0,0,1526.68,544.55Z" transform="translate(-15.93 -14.95)"/><path d="M1520.13,561.4a61.79,61.79,0,0,0,20.07,2l-.88,1.14c10.65,0,21.69-.52,31.64-5.07,21.8-9.67,41.4-27.28,45.37-51.74,2.15-11.67,2.61-28.21-6.59-36.93-14.32-6.15-19.06,19.17-22.09,28.76-.14,9.13-7.12,16.73-6.2,25.37,6.86,12.07,10.44-19.34,12-23.63,1.83-3.73,9.53-23.74,13.07-20.06,8,17.89-2.55,37.64-12.94,52.71l1.43,1.4-1.64,1.09c-2,4-8.41,8-11.64,11.47l3.5-6.69-1.72,1.7c.1,1.93-1.63,2.95-3.22,4-4.19,4.37-11.18,7.13-16.39,9.25-7.92,2.86-16,3.49-24,4.11-3.46.13-6.62-1.59-10-1.64l.08-.28-1.69-.14-.07-.42c-1.21-.13-2.39-.55-3.45-.66a4.23,4.23,0,0,1-3.38-.53l-3.08.51c0-1.77.15-3.94,1.76-5.08a2.88,2.88,0,0,1,.66-1.1l-1.32-1.18a17.7,17.7,0,0,0-1.14,1.42l-.79.33c0,1.83-1.1,3.35-2,4.85a4.28,4.28,0,0,0,.59,2.25l.26.39C1516.82,560,1519.17,561,1520.13,561.4Z" transform="translate(-15.93 -14.95)"/><polygon points="1590.06 468.26 1590.06 468.26 1590.06 468.26 1590.06 468.26"/><polygon points="1588.4 467.91 1588.4 467.91 1588.4 467.91 1588.4 467.91"/><polygon points="1500.66 546.33 1500.67 546.33 1500.67 546.33 1500.66 546.33"/><g class="cls-5"><path class="cls-6" d="M1599.64,555.72c-6.79,3.32-13.54,8.42-20.24,10.81a84.27,84.27,0,0,1-12.37,7.63c-1.08.37-1.23,1.85-2.68,1.74-.1-.22-.17-.35-.24-.53a20,20,0,0,1-6.69,5.66l-.18-.67c-.65-.11-.4.63-.37,1.21l-.56-.36-1.06,1.12c-1.86-.16-3.75,2.86-5.61,2.55-.21.31-.39.56-.61.87l-.32-.9c-.78.72-1,1.84-2.29,1.21l.08.26.33.23c-.25.3-.29.27-1.17-.77a23.3,23.3,0,0,0,3.85-2.15l-.11-.22c-1.39,0-2.64,1.37-4,1.65l-.19-.27c.9-1.18,3.23-1.7,4.17-2.83l-.18-.27a37.09,37.09,0,0,0-8.7,5.08c-.77.66-1.68,0-1.28,1.67l-1-.62c2.94-3.87,8.8-4.65,12-8.39l-.67.14-.18-.26c.24-.81,1.33-2.22,2.05-1.27l-1,1.09.11.21c1.83-.38,3.07-2.07,4.71-2.86l-.27-.39-1.48.46-.14-.16c1.17-1.14,1.28-2.85,2.51-3.87.31-.33.9-.5,1.05-.92-.34-1,.39-.84.62-1.3l.66,1,.44-.43c2.27.36,2.74-1.7,3.88-2.69.58-.12,1.2-.15,1.33-.89,2.08-2,11-6.85,9.67-9.49a9.59,9.59,0,0,1,4.26-3.42l.17.82c5.65-7.24,17.06-7.11,23.12-14.42a14.36,14.36,0,0,1,6.07-2.22c2.57-.76,3.35-3.64,5-5.49,3.55-3.16,10.71,1.48,9,6.07a13,13,0,0,0-7.26,6.06A83.37,83.37,0,0,1,1599.64,555.72Zm-22,1.77c.63,0,.91-.25.77-1.12h.38l-.18-.3-.19.31h0c-1,.65-2.14.62-2.25,2.3C1576.68,558.33,1577,557.59,1577.64,557.49Zm-20.21,14.19.19-.22-.26.15Zm-2.74,8.55-.17-.24-1,.76.17.24Zm-7.09-.83c-.7.79-2.82,1.11-2.21,2.39,1.12-.59,2.22-1.19,3.33-1.81C1548,578.74,1547.81,579.28,1547.6,579.4Zm-7.29,10.17c.88-.55.58-1.13,1.67-1.67l-.19-.26-.73.44-.25-.54c-.31.54-.62,1-1,1.6C1540,589.28,1540.25,589.6,1540.31,589.57Zm.73-5.83.11.21c.83.3,1.53-.19,1.47-1.21Zm-.4.49a1.88,1.88,0,0,0-1.62,1.33C1539.64,585.18,1540.38,585,1540.64,584.23Zm3.78,3.37c-.36.07-1-.1-.42,1.12.39-.17.76-.36,1.13-.53l-.13-.34C1544.8,587.76,1544.56,587.57,1544.42,587.6Zm.66-2.5-.16-.24-1.81,1.14.16.26Zm-.63-3.15a1.49,1.49,0,0,0-1.49.81C1543.79,583,1544.1,582.45,1544.45,582Zm7.06,3.18,2-1.09-.14-.21C1552.22,584.19,1551.47,584.68,1551.51,585.13Zm-10.77,5c1.14-.16,1.28-.26,1.27-1.06C1541.6,589.46,1541.16,589.81,1540.74,590.16Zm-1.16-.83-.68.27C1539.74,590.29,1539.88,590.22,1539.58,589.33Zm13.16-12.89,0-.56-.23-.18v.57Zm-13.15,14.34.08.13.51-.29-.08-.13Zm3.46-2.09.15.29.4-.06-.15-.31Zm-1.31-2a3.12,3.12,0,0,0,0,.4l.27-.09-.14-.24C1541.86,586.7,1541.74,586.63,1541.74,586.66Zm3.39-.35c-.1-.18-.18-.29-.34-.1l.16.24Z" transform="translate(-15.93 -14.95)"/></g><polygon class="cls-4" points="1543.42 614.09 1543.42 614.08 1543.42 614.08 1543.42 614.09"/><polygon class="cls-4" points="1553.6 616.52 1553.6 616.52 1553.6 616.52 1553.6 616.52"/><path class="cls-4" d="M1640.58,548.19a2.42,2.42,0,0,0-2,.11l0,.22.62.18a2.82,2.82,0,0,1,1.34-.3Z" transform="translate(-15.93 -14.95)"/><polygon class="cls-4" points="1611.3 586.86 1611.3 586.86 1611.3 586.86 1611.3 586.86"/><polygon points="1589.92 558.6 1589.92 558.6 1589.92 558.6 1589.92 558.6"/><rect x="1623.89" y="581.54"/><path d="M1674.56,559.41c-2.19-1.84-5-2.09-7.46-3.35l-.39.83a10.16,10.16,0,0,1-2.64-.4l-.1.11a65.57,65.57,0,0,1,11.91,5.5l.92-1.5C1676,560.18,1675.29,559.79,1674.56,559.41Z" transform="translate(-15.93 -14.95)"/><path d="M1627.65,600.48c11.45,5.16,24.71,3.57,35.94-1.05,4.21-1.66,8.5-2.6,12.06-5.43,4-2.35,8.66-3.63,11.82-7.17l.59,1,.41-.41-.69-.64c.49-.59.73-.92,1.13-1.43l.59.06c3.32-4.79,4.59-10.73.5-15.33l-1,.5c-2.26-1.75-3.72-4.67-6.23-6.17l-1.07,1.44c.37.24.76.52,1.11.77,0,0,.11.54.11.56,2.14.21,2.9,2.59,3.44,4.33l-.15,0c4.68,8.34-4.39,15-10.86,19.29l.11-1.44c-34.66,16.08-44.42,9.64-70.51-14.76l-.24-.33-.53,11.59-1.42.16,1.39.12c-20.91,53.73-72.09,41.73-23.71-10.47,4.09-4.39,9.87-4.17,12.82-9.57,6.91-8.55-7.29-4.87-10.39-.88-14.24,15.53-43.88,37.53-25.52,60l.23.3a11.58,11.58,0,0,0,2.25,2.13l.34.24a14.21,14.21,0,0,0,8.86,2.22l.4,0c18.62-3.18,33.76-18.35,42-34.71a6.72,6.72,0,0,1-.46-2.29l-.18,0c-.28-1.17-2.74-9-3.15-10.38l4.66,6.68c.56,0,1.35.33,2.09,1.62l-.51.29h0l.51-.28c1.63.9,8.22,5.85,9.87,7l-8.48-2.86c.93.64,2.15,1.36,3.13,1.93,3-.7,5.29,2.56,8.29,3.18Z" transform="translate(-15.93 -14.95)"/><path class="cls-2" d="M2047.41,545.63h0s0,.08,0,.12Z" transform="translate(-15.93 -14.95)"/><path class="cls-2" d="M2078.89,562.28c-.57-3.11-2.85-6.81-5.95-7.68a7.89,7.89,0,0,0-.9-.62c-1.2-2.13-3.89-3.09-6.38-3.22-5.88-2.08-11.83-4.47-18.2-4.58a2.16,2.16,0,0,0,0-.35l-3.09.38h0l3.06-.58c0-2.13-1.81-3.84-3.75-4.55,3.35-8.21,5.11-20.57-2.31-26.92-4.25-2.85-9.4.22-11.42,4.34-2.46,4.54-3.67,9.65-4.63,14.67-1.18,2.82-2.94,6-1.59,9.33a3.9,3.9,0,0,0-3.67-.71h0a26.77,26.77,0,0,1-5.58,1.21c-3.75-2.44-13.12,2.67-16.32,5.28-5.41,4.13-3.93,11.28,3.09,12.18l.16,0c3.37.42,6.63,1.27,10,1-1.1,2-4.57,2.7-5.58,4.71-2.14,3.1,2.66,6.85,5.23,4.19a3.07,3.07,0,0,0,1.12.15c-2,3.84-2.51,8.84-.41,12.84l2.77-1.43-2.64,1.67a8.51,8.51,0,0,0,.81,1.31l2.48-1.89-2.37,2,.25.33,2.51-1.84h0l-2.38,2c8.12,11.16,23.94-1.57,28.75-10.15a3.19,3.19,0,0,0,1.5.36,21.59,21.59,0,0,0,13.19,2.54,36.88,36.88,0,0,0,13.72-4.85C2075.29,571.92,2079.4,567.76,2078.89,562.28Zm-14.18,3.7c-9.3,3.66-13.65,4.15-21.21-3.21-2.13-1.59-4-4.52-6.73-5a4.88,4.88,0,0,0,.06-1.2,36.75,36.75,0,0,0,6.24-4.64c1.09,2,3.62,3.32,5.52,1.48a3.63,3.63,0,0,0,4.54.87,3.08,3.08,0,0,0,1,.5C2057.91,557.69,2077.39,561.23,2064.71,566Zm-31.4-.17a19.35,19.35,0,0,1-11.41,12.93,3.52,3.52,0,0,1-.3-.69c1.13-5.91,6.11-12.34,11.81-15.28Zm8.53-17.28.69.48,0,0-.67-.53Zm2.47-2.53Zm-21.55,2a3.11,3.11,0,0,0,2.23-3.48,4.19,4.19,0,0,0,1,.69,6,6,0,0,0-1.62,2c-4.33,3.93-9.53,4.41-15.1,5h-.16a7.49,7.49,0,0,1-1.11-.14l-.08-.08c.08-.08.15-.17.22-.25C2012.78,549.49,2017.8,549.37,2022.76,548.05Zm-7.3,35.36Z" transform="translate(-15.93 -14.95)"/><path class="cls-4" d="M2038.62,513l-.07,0c.77,0-.5-.12-.49-.16a.06.06,0,0,1,0,0h0l.06,0a.94.94,0,0,0,.06.15l.17,0,.17.09A.41.41,0,0,0,2038.62,513Z" transform="translate(-15.93 -14.95)"/><path class="cls-4" d="M2038.46,513.26l.31-.17-.24,0Z" transform="translate(-15.93 -14.95)"/><path class="cls-4" d="M1992.58,552.83l.29,0h-.29Z" transform="translate(-15.93 -14.95)"/><polygon class="cls-4" points="2021.93 497.78 2021.93 497.78 2022.09 497.87 2022.1 497.83 2021.93 497.78"/><path class="cls-4" d="M2010.9,542.29a6.38,6.38,0,0,0,.66-.15v-.06l-.61.13.57-.46h-.15a1.57,1.57,0,0,1-.49.39Z" transform="translate(-15.93 -14.95)"/><polygon class="cls-4" points="1971.93 540.77 1971.93 540.77 1971.93 540.77 1971.93 540.77"/><polygon points="1985.89 540.35 1985.88 540.35 1985.89 540.36 1985.89 540.35"/><path d="M1994.41,547.24c-.39.2-.77.4-1.11.61l.54.82c1.46-.76,2.82-1.55,4.29-2.26l-.23-.65,1.11-.63v-.08A50.55,50.55,0,0,0,1994.41,547.24Z" transform="translate(-15.93 -14.95)"/><path d="M1990.74,556.68a34.62,34.62,0,0,0,11.23,1.13l-.49.64c6,0,12.14-.29,17.7-2.84,12.21-5.41,23.18-15.26,25.4-29,1.2-6.53,1.46-15.78-3.69-20.66-8-3.44-10.67,10.72-12.37,16.09-.07,5.11-4,9.36-3.46,14.2,3.84,6.75,5.84-10.83,6.71-13.23,1-2.09,5.34-13.28,7.31-11.22,4.51,10-1.42,21.06-7.23,29.49l.79.78-.91.62c-1.14,2.25-4.71,4.49-6.52,6.42l2-3.75-1,1c.06,1.08-.91,1.65-1.8,2.26-2.35,2.44-6.26,4-9.17,5.17-4.44,1.6-8.93,2-13.46,2.3-1.93.08-3.7-.89-5.62-.92l0-.15-1-.08,0-.24c-.67-.07-1.34-.3-1.93-.36a2.39,2.39,0,0,1-1.89-.3l-1.72.28c0-1,.08-2.2,1-2.84a1.58,1.58,0,0,1,.37-.61l-.74-.66a10,10,0,0,0-.64.79l-.44.19a5.17,5.17,0,0,1-1.13,2.71,2.4,2.4,0,0,0,.33,1.26l.15.22A6.51,6.51,0,0,0,1990.74,556.68Z" transform="translate(-15.93 -14.95)"/><polygon points="2022.86 497.98 2022.86 497.98 2022.86 497.98 2022.86 497.98"/><polygon points="2021.93 497.78 2021.93 497.78 2021.93 497.78 2021.93 497.78"/><polygon points="1972.84 541.66 1972.84 541.66 1972.84 541.66 1972.84 541.66"/><g class="cls-5"><path class="cls-6" d="M2035.24,553.5c-3.81,1.86-7.58,4.71-11.33,6a47.42,47.42,0,0,1-6.92,4.28c-.61.2-.69,1-1.5,1l-.14-.29a11.08,11.08,0,0,1-3.74,3.16l-.1-.37c-.37-.07-.23.35-.21.67l-.31-.2-.59.63c-1-.09-2.1,1.6-3.14,1.43l-.35.48-.18-.5c-.43.4-.53,1-1.27.68l0,.14.18.13c-.13.16-.16.15-.65-.43a13.37,13.37,0,0,0,2.16-1.2l-.07-.13c-.77,0-1.48.77-2.24.93l-.1-.16c.5-.65,1.8-1,2.33-1.58l-.1-.15a20.85,20.85,0,0,0-4.87,2.84c-.43.37-.94,0-.71.93l-.55-.34c1.64-2.17,4.92-2.6,6.68-4.69l-.37.07-.1-.14c.13-.45.74-1.24,1.15-.72l-.55.62.06.11c1-.21,1.72-1.15,2.63-1.59l-.15-.22-.82.25-.09-.09c.66-.63.72-1.59,1.41-2.16.17-.19.5-.28.59-.51-.19-.57.22-.48.35-.73l.36.54.25-.23c1.27.2,1.53-1,2.18-1.51.32-.07.67-.09.74-.5,1.16-1.13,6.16-3.83,5.41-5.31a5.37,5.37,0,0,1,2.38-1.91c0,.21.07.32.1.45,3.16-4.05,9.55-4,12.94-8.06a7.83,7.83,0,0,1,3.39-1.24c1.44-.43,1.88-2,2.79-3.08,2-1.76,6,.83,5,3.4a7.28,7.28,0,0,0-4.06,3.39A47.27,47.27,0,0,1,2035.24,553.5Zm-12.32,1c.36,0,.51-.14.43-.63h.22l-.1-.17-.11.17h0c-.53.37-1.19.35-1.26,1.29C2022.39,555,2022.58,554.54,2022.92,554.49Zm-11.3,7.94.1-.13-.14.09Zm-1.54,4.78-.09-.13-.59.42.1.14Zm-4-.46c-.39.44-1.58.62-1.24,1.34l1.86-1C2006.34,566.38,2006.23,566.68,2006.12,566.75Zm-4.08,5.69c.49-.31.32-.63.93-.94l-.1-.14c-.14.08-.28.16-.41.25l-.14-.3-.55.89C2001.86,572.28,2002,572.46,2002,572.44Zm.4-3.26.07.11c.46.17.85-.1.82-.67Zm-.22.27a1.07,1.07,0,0,0-.91.75C2001.66,570,2002.07,569.9,2002.22,569.45Zm2.12,1.89c-.21,0-.54-.06-.24.62l.64-.29-.08-.19C2004.55,571.43,2004.41,571.32,2004.34,571.34Zm.37-1.4-.09-.14-1,.64.08.15Zm-.36-1.77a.84.84,0,0,0-.83.46C2004,568.78,2004.16,568.45,2004.35,568.17Zm4,1.78,1.12-.61-.08-.11C2008.7,569.43,2008.28,569.7,2008.3,570Zm-6,2.82c.64-.09.72-.15.72-.6C2002.76,572.38,2002.51,572.57,2002.27,572.77Zm-.64-.47-.39.16C2001.71,572.84,2001.8,572.8,2001.63,572.3Zm7.36-7.21v-.31l-.13-.1V565Zm-7.36,8,0,.08.28-.16,0-.08Zm1.94-1.17.08.17.23,0-.09-.17Zm-.73-1.13a1.64,1.64,0,0,0,0,.22l.15,0-.07-.13Zm1.89-.2c0-.1-.1-.16-.18-.05l.08.14Z" transform="translate(-15.93 -14.95)"/></g><polygon class="cls-4" points="1996.76 579.57 1996.76 579.57 1996.76 579.57 1996.76 579.57"/><polygon class="cls-4" points="2002.46 580.94 2002.46 580.94 2002.46 580.94 2002.46 580.94"/><path class="cls-4" d="M2058.14,549.28a1.4,1.4,0,0,0-1.1.06l0,.13.35.1a1.66,1.66,0,0,1,.75-.17Z" transform="translate(-15.93 -14.95)"/><polygon class="cls-4" points="2034.75 564.34 2034.75 564.34 2034.75 564.34 2034.75 564.34"/><polygon points="2022.78 548.52 2022.78 548.52 2022.78 548.52 2022.78 548.52"/><rect x="2041.79" y="561.36"/><path d="M2077.16,555.56c-1.23-1-2.82-1.16-4.17-1.87l-.22.46a5.57,5.57,0,0,1-1.48-.22l-.06.06a37.05,37.05,0,0,1,6.67,3.08l.51-.84Z" transform="translate(-15.93 -14.95)"/><path d="M2050.91,578.54c6.41,2.89,13.83,2,20.11-.58,2.36-.93,4.76-1.46,6.75-3,2.22-1.32,4.85-2,6.61-4l.33.57.23-.23-.39-.36c.28-.33.41-.51.64-.79l.33,0c1.86-2.67,2.57-6,.28-8.57l-.58.28c-1.26-1-2.08-2.62-3.49-3.45l-.59.8.62.43s.06.31.06.32c1.2.11,1.62,1.45,1.93,2.42h-.09c2.62,4.66-2.45,8.41-6.08,10.79l.07-.81c-19.4,9-24.86,5.4-39.46-8.25l-.14-.19-.29,6.49-.79.09.77.06c-11.7,30.07-40.34,23.36-13.27-5.86,2.29-2.45,5.53-2.33,7.18-5.35,3.87-4.78-4.08-2.73-5.82-.49-8,8.69-24.55,21-14.28,33.58l.13.17a6.73,6.73,0,0,0,1.26,1.19l.19.13a7.9,7.9,0,0,0,5,1.24h.22c10.42-1.78,18.9-10.27,23.51-19.43a3.4,3.4,0,0,1-.26-1.28l-.1,0c-.16-.65-1.54-5.06-1.76-5.81l2.61,3.74c.31,0,.75.18,1.16.91l-.28.16h0l.29-.15c.91.5,4.6,3.27,5.52,3.91l-4.75-1.6c.52.36,1.21.76,1.76,1.08,1.68-.39,3,1.43,4.63,1.78Z" transform="translate(-15.93 -14.95)"/><path class="cls-2" d="M2380.31,547.79h0s0,0,0,.07A.22.22,0,0,0,2380.31,547.79Z" transform="translate(-15.93 -14.95)"/><path class="cls-2" d="M2398.28,557.29c-.33-1.77-1.63-3.88-3.4-4.37a3.87,3.87,0,0,0-.51-.36,4.39,4.39,0,0,0-3.64-1.84c-3.36-1.18-6.75-2.55-10.39-2.61,0-.06,0-.13,0-.2l-1.77.22h0l1.75-.33a3,3,0,0,0-2.14-2.6c1.91-4.68,2.91-11.74-1.32-15.36-2.42-1.63-5.36.13-6.52,2.48a28.86,28.86,0,0,0-2.64,8.37c-.67,1.61-1.67,3.4-.91,5.32a2.24,2.24,0,0,0-2.09-.41h0a14.25,14.25,0,0,1-3.18.69c-2.14-1.38-7.49,1.53-9.31,3-3.09,2.35-2.25,6.43,1.76,7l.09,0a28.37,28.37,0,0,0,5.72.56c-.63,1.15-2.61,1.54-3.19,2.69-1.22,1.77,1.52,3.91,3,2.39a1.84,1.84,0,0,0,.64.08,8.07,8.07,0,0,0-.23,7.33l1.58-.82-1.51,1a5,5,0,0,0,.46.75l1.42-1.07-1.36,1.16.15.19,1.43-1h0l-1.36,1.14c4.63,6.37,13.66-.89,16.4-5.79a1.76,1.76,0,0,0,.86.21,12.31,12.31,0,0,0,7.52,1.45,20.85,20.85,0,0,0,7.83-2.77C2396.22,562.8,2398.57,560.42,2398.28,557.29Zm-8.09,2.12c-5.31,2.09-7.79,2.37-12.11-1.84-1.21-.9-2.29-2.57-3.84-2.87a2.24,2.24,0,0,0,0-.68,21,21,0,0,0,3.56-2.65c.62,1.13,2.06,1.89,3.15.84a2.08,2.08,0,0,0,2.59.5,1.73,1.73,0,0,0,.58.28C2386.31,554.68,2397.42,556.7,2390.19,559.41Zm-17.92-.1a11.05,11.05,0,0,1-6.51,7.38,2,2,0,0,1-.17-.4,13.68,13.68,0,0,1,6.74-8.72Zm4.86-9.86.4.27v0l-.39-.3Zm1.42-1.44Zm-12.3,1.17a1.8,1.8,0,0,0,1.28-2,2.28,2.28,0,0,0,.56.4,3.39,3.39,0,0,0-.93,1.14c-2.47,2.25-5.43,2.52-8.61,2.87h-.09c-.21,0-.41,0-.64-.08l0,0,.12-.14C2360.56,550,2363.42,549.93,2366.25,549.18Zm-4.17,20.17Z" transform="translate(-15.93 -14.95)"/><path class="cls-4" d="M2375.3,529.16h0c.44,0-.28-.07-.28-.09v0h0a.36.36,0,0,0,0,.09h.09l.1.05A.21.21,0,0,0,2375.3,529.16Z" transform="translate(-15.93 -14.95)"/><path class="cls-4" d="M2375.21,529.33l.18-.1-.14,0A.3.3,0,0,0,2375.21,529.33Z" transform="translate(-15.93 -14.95)"/><path class="cls-4" d="M2349,551.9a.47.47,0,0,0,.17,0H2349Z" transform="translate(-15.93 -14.95)"/><polygon class="cls-4" points="2358.94 514.08 2358.94 514.08 2359.03 514.13 2359.03 514.11 2358.94 514.08"/><path class="cls-4" d="M2359.48,545.89l.38-.08v0l-.35.08.32-.27h-.09a.84.84,0,0,1-.27.22Z" transform="translate(-15.93 -14.95)"/><polygon class="cls-4" points="2330.41 538.6 2330.41 538.6 2330.41 538.6 2330.41 538.6"/><polygon points="2338.37 538.37 2338.37 538.37 2338.37 538.37 2338.37 538.37"/><path d="M2350.08,548.72a4.83,4.83,0,0,0-.64.35l.31.46c.83-.43,1.61-.88,2.45-1.29l-.13-.37.63-.36v0A27.34,27.34,0,0,0,2350.08,548.72Z" transform="translate(-15.93 -14.95)"/><path d="M2348,554.1a19.83,19.83,0,0,0,6.41.65l-.28.36c3.4,0,6.92-.17,10.1-1.62,7-3.08,13.22-8.71,14.49-16.52.68-3.72.83-9-2.11-11.79-4.57-2-6.08,6.12-7.05,9.18-.05,2.92-2.27,5.35-2,8.11,2.19,3.85,3.34-6.18,3.83-7.55.58-1.19,3.05-7.58,4.17-6.4,2.57,5.71-.81,12-4.13,16.82l.46.45-.52.35c-.65,1.29-2.69,2.56-3.72,3.66l1.12-2.14-.55.55c0,.61-.52.94-1,1.28-1.34,1.4-3.57,2.28-5.23,3a28.7,28.7,0,0,1-7.68,1.31c-1.1,0-2.11-.51-3.2-.52l0-.09-.54,0,0-.13c-.39,0-.77-.18-1.1-.21a1.35,1.35,0,0,1-1.08-.17l-1,.16a1.92,1.92,0,0,1,.56-1.62.92.92,0,0,1,.22-.35l-.43-.38a5.63,5.63,0,0,0-.36.46l-.25.1a3,3,0,0,1-.65,1.55,1.52,1.52,0,0,0,.19.72l.09.12A3.65,3.65,0,0,0,2348,554.1Z" transform="translate(-15.93 -14.95)"/><polygon points="2359.47 514.19 2359.47 514.19 2359.47 514.19 2359.47 514.19"/><polygon points="2358.94 514.08 2358.94 514.08 2358.94 514.08 2358.94 514.08"/><polygon points="2330.93 539.11 2330.93 539.11 2330.93 539.11 2330.93 539.11"/><g class="cls-5"><path class="cls-6" d="M2373.37,552.29c-2.17,1.06-4.33,2.68-6.46,3.45a27.47,27.47,0,0,1-3.95,2.43c-.35.12-.4.59-.86.56l-.08-.17a6.41,6.41,0,0,1-2.13,1.81l-.06-.22c-.21,0-.13.2-.12.39l-.18-.12-.33.36c-.6,0-1.2.91-1.79.82l-.2.27-.1-.28c-.25.22-.31.58-.73.38l0,.09.11.07c-.08.09-.09.08-.38-.25a7,7,0,0,0,1.23-.68l0-.07c-.44,0-.85.43-1.28.52l-.06-.08c.29-.38,1-.55,1.33-.91l-.06-.08a11.77,11.77,0,0,0-2.77,1.62c-.25.21-.54,0-.41.53l-.31-.2c.93-1.23,2.81-1.48,3.81-2.67l-.21,0-.06-.08c.07-.26.42-.71.65-.41-.1.12-.2.24-.31.35l0,.07c.58-.12,1-.66,1.5-.92l-.09-.12-.47.15-.05-.06c.38-.36.41-.91.81-1.23.1-.11.28-.16.33-.29-.11-.33.13-.27.2-.42l.21.31.14-.13c.73.11.88-.55,1.24-.86.19,0,.39,0,.43-.29.66-.64,3.51-2.18,3.08-3a3.09,3.09,0,0,1,1.36-1.09l.06.26c1.8-2.31,5.44-2.27,7.38-4.6a4.53,4.53,0,0,1,1.94-.71c.82-.24,1.07-1.16,1.59-1.75,1.13-1,3.42.47,2.87,1.93a4.16,4.16,0,0,0-2.32,1.94A27.18,27.18,0,0,1,2373.37,552.29Zm-7,.56c.21,0,.3-.08.25-.36h.12l-.06-.1-.06.1h0c-.3.21-.68.2-.72.74C2366,553.12,2366.15,552.88,2366.34,552.85Zm-6.45,4.53.06-.07-.08.05Zm-.87,2.73L2359,560l-.33.25,0,.07Zm-2.27-.26c-.22.25-.9.35-.7.76l1.06-.58C2356.88,559.64,2356.82,559.81,2356.75,559.85Zm-2.32,3.24c.28-.17.18-.36.53-.53l-.06-.09-.23.15-.08-.17c-.1.17-.2.32-.32.5C2354.32,563,2354.41,563.1,2354.43,563.09Zm.23-1.86,0,.07c.27.09.49-.06.47-.39Zm-.13.16a.6.6,0,0,0-.52.42C2354.21,561.69,2354.45,561.64,2354.53,561.39Zm1.21,1.07c-.12,0-.31,0-.14.36l.37-.17,0-.11C2355.86,562.51,2355.78,562.45,2355.74,562.46Zm.21-.79,0-.08-.58.36,0,.08Zm-.2-1a.48.48,0,0,0-.48.26C2355.54,561,2355.64,560.82,2355.75,560.66Zm2.25,1,.64-.34,0-.07C2358.23,561.38,2358,561.53,2358,561.67Zm-3.44,1.61c.37,0,.41-.08.41-.34C2354.84,563.06,2354.7,563.17,2354.56,563.28Zm-.37-.26-.22.08C2354.24,563.32,2354.29,563.3,2354.19,563Zm4.2-4.12v-.18l-.07-.06v.19Zm-4.19,4.58,0,0,.17-.09,0,0Zm1.1-.67,0,.1.13,0-.05-.09Zm-.42-.65a.59.59,0,0,0,0,.13l.08,0,0-.07Zm1.08-.11c0-.06-.05-.09-.1,0l0,.08Z" transform="translate(-15.93 -14.95)"/></g><polygon class="cls-4" points="2344.58 560.74 2344.58 560.74 2344.58 560.74 2344.58 560.74"/><polygon class="cls-4" points="2347.83 561.52 2347.83 561.52 2347.83 561.52 2347.83 561.52"/><path class="cls-4" d="M2386.44,549.88a.77.77,0,0,0-.63,0l0,.07.2,0a1,1,0,0,1,.43-.09Z" transform="translate(-15.93 -14.95)"/><polygon class="cls-4" points="2366.25 552.05 2366.25 552.05 2366.25 552.05 2366.25 552.05"/><polygon points="2359.42 543.03 2359.42 543.03 2359.42 543.03 2359.42 543.03"/><rect x="2370.27" y="550.35"/><path d="M2397.29,553.46a12.39,12.39,0,0,0-2.38-1.07l-.13.27a3.35,3.35,0,0,1-.84-.13l0,0a21.19,21.19,0,0,1,3.8,1.75l.29-.48Z" transform="translate(-15.93 -14.95)"/><path d="M2382.31,566.58c3.66,1.64,7.89,1.14,11.47-.34a14,14,0,0,0,3.85-1.73c1.28-.75,2.77-1.16,3.78-2.29l.19.32.13-.13-.22-.21c.16-.18.23-.29.36-.45l.19,0c1.06-1.53,1.46-3.43.16-4.9l-.33.16c-.72-.56-1.19-1.49-2-2l-.34.46.35.25,0,.18c.68.06.92.82,1.1,1.38H2401c1.49,2.67-1.4,4.8-3.47,6.16l0-.46c-11.07,5.13-14.19,3.08-22.51-4.71l-.08-.11-.17,3.7-.45.06.44,0c-6.68,17.16-23,13.33-7.57-3.34,1.3-1.4,3.15-1.33,4.09-3,2.21-2.73-2.33-1.56-3.32-.28-4.54,4.95-14,12-8.14,19.15l.07.1a3.55,3.55,0,0,0,.72.68l.11.08a4.51,4.51,0,0,0,2.83.7h.12c5.95-1,10.78-5.86,13.41-11.09a2.16,2.16,0,0,1-.15-.73l0,0c-.09-.37-.88-2.89-1-3.31l1.49,2.13c.18,0,.43.1.67.51l-.16.1h0l.16-.09c.52.29,2.63,1.87,3.15,2.23l-2.71-.91c.3.2.69.43,1,.62.95-.23,1.68.81,2.64,1Z" transform="translate(-15.93 -14.95)"/><path class="cls-2" d="M2674.57,549h0v0Z" transform="translate(-15.93 -14.95)"/><path class="cls-2" d="M2685.1,554.56a3.32,3.32,0,0,0-2-2.57,2.28,2.28,0,0,0-.3-.21,2.57,2.57,0,0,0-2.13-1.08,19.76,19.76,0,0,0-6.09-1.53.49.49,0,0,1,0-.12l-1,.13h0l1-.19a1.81,1.81,0,0,0-1.26-1.53c1.12-2.74,1.71-6.88-.77-9-1.42-1-3.15.08-3.82,1.46a16.63,16.63,0,0,0-1.55,4.91c-.4.94-1,2-.54,3.12a1.29,1.29,0,0,0-1.22-.24h0a8.8,8.8,0,0,1-1.87.4c-1.26-.81-4.39.9-5.46,1.77-1.81,1.38-1.32,3.78,1,4.08h.06a16.47,16.47,0,0,0,3.35.33c-.37.68-1.53.9-1.87,1.58-.71,1,.89,2.29,1.75,1.4a1.52,1.52,0,0,0,.38.05,4.74,4.74,0,0,0-.14,4.29l.93-.47-.89.55a3.67,3.67,0,0,0,.27.44l.84-.63-.8.68.09.12.84-.62h0l-.8.67c2.71,3.73,8-.52,9.62-3.4a1,1,0,0,0,.5.13,7.25,7.25,0,0,0,4.41.84,12.11,12.11,0,0,0,4.6-1.62A3.7,3.7,0,0,0,2685.1,554.56Zm-4.74,1.24c-3.11,1.22-4.57,1.39-7.1-1.08-.71-.53-1.35-1.51-2.25-1.68a1.82,1.82,0,0,0,0-.4,12.22,12.22,0,0,0,2.09-1.56,1.19,1.19,0,0,0,1.85.5,1.21,1.21,0,0,0,1.51.29,1.11,1.11,0,0,0,.35.16C2678.08,553,2684.6,554.21,2680.36,555.8Zm-10.51-.06a6.49,6.49,0,0,1-3.82,4.33,2.44,2.44,0,0,1-.1-.24,8,8,0,0,1,4-5.11Zm2.85-5.78.24.16h0l-.23-.17Zm.83-.85Zm-7.21.69a1.06,1.06,0,0,0,.75-1.17,1.23,1.23,0,0,0,.33.23c-.18.19-.47.42-.54.68-1.45,1.31-3.19,1.47-5.06,1.68h-.05a1.61,1.61,0,0,1-.37,0l0,0a.27.27,0,0,0,.07-.08C2663,550.28,2664.66,550.24,2666.32,549.8Zm-2.44,11.83Z" transform="translate(-15.93 -14.95)"/><path class="cls-4" d="M2671.63,538.06h0c.25,0-.17,0-.17,0h0l0,.05h.05l.06,0Z" transform="translate(-15.93 -14.95)"/><path class="cls-4" d="M2671.58,538.15l.1,0h-.08Z" transform="translate(-15.93 -14.95)"/><path class="cls-4" d="M2656.22,551.4h0Z" transform="translate(-15.93 -14.95)"/><polygon class="cls-4" points="2655.45 523.03 2655.45 523.03 2655.5 523.06 2655.5 523.05 2655.45 523.03"/><path class="cls-4" d="M2662.35,547.87l.22,0v0l-.2,0,.19-.15h-.06a.34.34,0,0,1-.16.13Z" transform="translate(-15.93 -14.95)"/><polygon class="cls-4" points="2638.71 537.41 2638.72 537.41 2638.72 537.41 2638.71 537.41"/><polygon points="2643.39 537.27 2643.39 537.27 2643.39 537.27 2643.39 537.27"/><path d="M2656.83,549.53c-.13.06-.25.13-.37.2l.18.27c.49-.25,1-.51,1.44-.75L2658,549l.37-.21v0A16.67,16.67,0,0,0,2656.83,549.53Z" transform="translate(-15.93 -14.95)"/><path d="M2655.61,552.68a11.34,11.34,0,0,0,3.76.38l-.17.22a14.23,14.23,0,0,0,5.92-.95c4.09-1.81,7.76-5.11,8.5-9.69.4-2.19.49-5.28-1.23-6.92-2.69-1.15-3.57,3.59-4.14,5.39,0,1.71-1.33,3.13-1.16,4.75,1.28,2.26,2-3.62,2.25-4.43s1.78-4.44,2.44-3.75c1.51,3.35-.47,7.05-2.42,9.87l.27.26-.31.2c-.38.76-1.57,1.51-2.18,2.15l.66-1.25-.32.32c0,.36-.31.55-.61.75a8.84,8.84,0,0,1-3.07,1.73,16.22,16.22,0,0,1-4.5.77c-.65,0-1.24-.29-1.88-.3l0,0-.32,0V552c-.23,0-.45-.1-.65-.12a.81.81,0,0,1-.63-.1l-.58.09a1.12,1.12,0,0,1,.33-.95.62.62,0,0,1,.12-.2l-.24-.23-.22.27-.15.06a1.73,1.73,0,0,1-.37.91.78.78,0,0,0,.11.42l.05.07A2,2,0,0,0,2655.61,552.68Z" transform="translate(-15.93 -14.95)"/><polygon points="2655.76 523.09 2655.76 523.09 2655.76 523.09 2655.76 523.09"/><polygon points="2655.45 523.03 2655.45 523.03 2655.45 523.03 2655.45 523.03"/><polygon points="2639.02 537.71 2639.02 537.71 2639.02 537.71 2639.02 537.71"/><g class="cls-5"><path class="cls-6" d="M2670.5,551.62a42.49,42.49,0,0,1-3.79,2,16.32,16.32,0,0,1-2.32,1.43c-.2.07-.23.35-.5.33l0-.1a3.76,3.76,0,0,1-1.25,1.06l0-.13c-.13,0-.08.12-.07.23l-.11-.07-.2.21c-.34,0-.7.54-1,.48l-.11.16-.06-.17c-.15.14-.18.35-.43.23l0,.05.06,0c-.05.06-.06.05-.22-.14a4.57,4.57,0,0,0,.72-.4l0-.05c-.26,0-.5.26-.75.31l0-.05c.17-.22.61-.32.78-.53l0,0a7,7,0,0,0-1.63.95c-.14.13-.31,0-.24.31l-.18-.11c.55-.73,1.65-.87,2.24-1.57l-.13,0,0,0c0-.15.25-.42.38-.24l-.18.2,0,0c.34-.07.57-.39.88-.53l0-.08-.28.09,0,0c.22-.21.24-.53.47-.73,0-.06.16-.09.19-.17s.08-.16.12-.24l.12.18.08-.08c.43.07.52-.32.73-.5.11,0,.23,0,.25-.17.39-.38,2.06-1.28,1.81-1.78a1.86,1.86,0,0,1,.8-.64l0,.16c1.06-1.36,3.2-1.33,4.33-2.7a2.75,2.75,0,0,1,1.14-.42c.48-.14.62-.68.93-1,.66-.6,2,.27,1.68,1.13a2.45,2.45,0,0,0-1.35,1.13A15.57,15.57,0,0,1,2670.5,551.62Zm-4.12.33c.11,0,.17-.05.14-.21h.07l0-.06,0,.06h0c-.18.12-.4.12-.42.43C2666.2,552.11,2666.26,552,2666.38,552Zm-3.79,2.66,0,0-.05,0Zm-.51,1.6,0-.05-.2.14,0,.05Zm-1.33-.16c-.13.15-.53.21-.41.45l.62-.34C2660.83,555.93,2660.79,556,2660.75,556.05Zm-1.36,1.91c.16-.11.11-.21.31-.32l0,0-.13.08-.05-.1-.18.3S2659.37,558,2659.39,558Zm.13-1.09,0,0a.2.2,0,0,0,.28-.23Zm-.07.09a.35.35,0,0,0-.31.25C2659.26,557.14,2659.4,557.11,2659.45,557Zm.71.63c-.07,0-.18,0-.08.21l.21-.1,0-.07S2660.18,557.58,2660.16,557.59Zm.12-.47,0,0-.34.22,0,.05Zm-.12-.59a.28.28,0,0,0-.28.15C2660,556.73,2660.1,556.62,2660.16,556.53Zm1.32.6.38-.21,0,0C2661.62,557,2661.48,557,2661.48,557.13Zm-2,.94c.21,0,.24-.05.24-.2Zm-.22-.16-.13.05C2659.28,558.09,2659.31,558.08,2659.25,557.91Zm2.46-2.41v-.11l0,0v.11Zm-2.46,2.68,0,0,.09-.06v0Zm.65-.39,0,.06.07,0,0-.05Zm-.25-.38s0,.05,0,.08l.05,0,0,0Zm.64-.06s0-.06-.06,0l0,0Z" transform="translate(-15.93 -14.95)"/></g><polygon class="cls-4" points="2647.03 550.4 2647.03 550.4 2647.03 550.4 2647.03 550.4"/><polygon class="cls-4" points="2648.93 550.85 2648.93 550.85 2648.93 550.85 2648.93 550.85"/><path class="cls-4" d="M2678.16,550.21a.44.44,0,0,0-.37,0v0l.12,0a.48.48,0,0,1,.25-.06Z" transform="translate(-15.93 -14.95)"/><polygon class="cls-4" points="2659.74 545.3 2659.74 545.3 2659.74 545.3 2659.74 545.3"/><polygon points="2655.73 540.01 2655.73 540.01 2655.73 540.01 2655.73 540.01"/><rect x="2662.09" y="544.3"/><path d="M2684.52,552.31a7.24,7.24,0,0,0-1.39-.63l-.08.16a1.62,1.62,0,0,1-.49-.08l0,0a13.16,13.16,0,0,1,2.23,1l.17-.28Z" transform="translate(-15.93 -14.95)"/><path d="M2675.74,560a8.56,8.56,0,0,0,6.73-.2,19.79,19.79,0,0,0,4.47-2.36l.11.19.08-.07-.13-.12.21-.27h.11a2.25,2.25,0,0,0,.1-2.87l-.2.09c-.42-.32-.69-.87-1.16-1.15l-.2.27.2.14,0,.11c.4,0,.55.48.65.81h0c.88,1.57-.82,2.82-2,3.62l0-.27c-6.49,3-8.32,1.8-13.21-2.77l0-.06-.1,2.17-.27,0,.26,0c-3.91,10.06-13.49,7.82-4.44-2,.77-.82,1.85-.78,2.41-1.79,1.29-1.6-1.37-.91-2-.16-2.67,2.9-8.22,7-4.78,11.23l0,.06a2.32,2.32,0,0,0,.43.4l.06,0a2.65,2.65,0,0,0,1.66.42h.07c3.49-.59,6.33-3.43,7.87-6.5a1.22,1.22,0,0,1-.09-.43h0c0-.22-.52-1.69-.59-1.94l.87,1.25c.11,0,.25.06.39.3l-.09.06h0l.09,0c.31.16,1.54,1.09,1.85,1.31l-1.59-.54c.18.12.41.26.59.36.56-.13,1,.48,1.55.6Z" transform="translate(-15.93 -14.95)"/></g></g></svg>